<?xml version="1.0" encoding="UTF-8" standalone="no"?>
<!-- Created with Inkscape (http://www.inkscape.org/) -->
<svg
   xmlns:dc="http://purl.org/dc/elements/1.1/"
   xmlns:cc="http://creativecommons.org/ns#"
   xmlns:rdf="http://www.w3.org/1999/02/22-rdf-syntax-ns#"
   xmlns:svg="http://www.w3.org/2000/svg"
   xmlns="http://www.w3.org/2000/svg"
   xmlns:sodipodi="http://sodipodi.sourceforge.net/DTD/sodipodi-0.dtd"
   xmlns:inkscape="http://www.inkscape.org/namespaces/inkscape"
   width="744.09448819"
   height="1052.3622047"
   id="svg2623"
   sodipodi:version="0.32"
   inkscape:version="0.46"
   sodipodi:docname="pgbr.svg"
   inkscape:output_extension="org.inkscape.output.svg.inkscape">
  <defs
     id="defs2625">
    <inkscape:perspective
       sodipodi:type="inkscape:persp3d"
       inkscape:vp_x="0 : 526.18109 : 1"
       inkscape:vp_y="0 : 1000 : 0"
       inkscape:vp_z="744.09448 : 526.18109 : 1"
       inkscape:persp3d-origin="372.04724 : 350.78739 : 1"
       id="perspective2631" />
  </defs>
  <sodipodi:namedview
     id="base"
     pagecolor="#ffffff"
     bordercolor="#666666"
     borderopacity="1.0"
     gridtolerance="10000"
     guidetolerance="10"
     objecttolerance="10"
     inkscape:pageopacity="0.0"
     inkscape:pageshadow="2"
     inkscape:zoom="0.35"
     inkscape:cx="375"
     inkscape:cy="520"
     inkscape:document-units="px"
     inkscape:current-layer="g3175"
     showgrid="false"
     inkscape:window-width="640"
     inkscape:window-height="680"
     inkscape:window-x="0"
     inkscape:window-y="26" />
  <metadata
     id="metadata2628">
    <rdf:RDF>
      <cc:Work
         rdf:about="">
        <dc:format>image/svg+xml</dc:format>
        <dc:type
           rdf:resource="http://purl.org/dc/dcmitype/StillImage" />
      </cc:Work>
    </rdf:RDF>
  </metadata>
  <g
     inkscape:label="Layer 1"
     inkscape:groupmode="layer"
     id="layer1">
    <g
       transform="matrix(0.2061127,-4.0853806e-3,0,0.2090212,913.18618,1240.3661)"
       id="g3175">
      <g
         id="g7336"
         transform="matrix(1.6396425,3.2047303e-2,0,1.6944767,-9367.6606,2110.8199)">
        <path
           id="path5521"
           d="M 4647.3511,-4481.2544 C 4563.064,-4477.3402 4477.9935,-4454.0326 4401.2886,-4415.1085 C 5029.5237,-4462.5408 5148.0748,-4106.0811 4839.615,-3411.4558 C 5165.5698,-3750.5263 5122.1626,-4163.0389 5041.5803,-4297.8099 C 4962.9083,-4429.3867 4809.6199,-4487.4689 4651.7608,-4481.2544 C 4650.4237,-4481.2016 4648.6891,-4481.3164 4647.3511,-4481.2544 z M 3588.1359,-4430.9835 C 3583.2919,-4430.9085 3578.8251,-4430.2924 3574.0248,-4430.1016 C 3424.3525,-4424.1521 3297.0915,-4362.2844 3243.2957,-4222.8447 C 3050.7225,-3723.6895 3505.0221,-2674.0005 3794.5109,-3201.5531 C 3455.1827,-2867.0201 3291.3553,-3780.7786 3296.2123,-3935.3308 C 3301.0987,-4090.8183 3292.5979,-4401.4312 3894.1706,-4370.1294 C 3793.6072,-4409.8431 3686.6301,-4432.5081 3588.1359,-4430.9835 z M 4229.3095,-4429.2196 C 4218.6361,-4428.5005 4206.9222,-4426.6683 4195.7956,-4424.8099 C 4030.9826,-4397.2831 3873.4386,-4318.1319 3804.2123,-4194.6224 C 3650.1607,-3919.7727 3729.8789,-3457.0071 3765.4067,-3404.4003 C 3765.6026,-3404.2041 3766.0942,-3403.7012 3766.2887,-3403.5183 C 3766.2845,-3403.4159 3766.3056,-3402.7592 3766.2887,-3402.6364 C 3847.2938,-3377.9846 3929.5655,-3356.9003 4010.5873,-3287.1017 C 3956.5417,-3362.2783 3968.2616,-3413.3411 3799.8026,-3445.8517 C 3745.0774,-3655.1516 3767.7117,-3983.7367 3875.6498,-4154.9349 C 3984.9598,-4328.3091 4178.8688,-4342.265 4223.1359,-4341.0252 C 4326.6967,-4338.1242 4397.8365,-4315.1869 4481.5456,-4254.5946 C 4564.5155,-4194.538 4728.8354,-4136.9396 4687.9206,-3988.2474 C 4464.9503,-4107.6099 4417.6948,-3732.4729 4615.6011,-3382.3517 C 4465.3587,-3763.3192 4531.9589,-3902.3204 4590.0247,-3945.0322 C 4617.8389,-3965.4913 4655.5644,-3964.0537 4696.74,-3955.6155 C 4709.1922,-3902.9788 4717.7207,-3844.9584 4720.5525,-3781.8725 C 4726.7295,-3644.262 4739.0716,-3443.9325 4645.5872,-3289.7475 C 4734.93,-3317.1925 4790.1318,-3497.3296 4768.1775,-3698.9697 C 4751.3336,-3853.6695 4813.4231,-3952.0417 4777.8789,-4060.5669 C 4739.7859,-4176.874 4616.0547,-4264.7702 4537.1081,-4309.2752 C 4459.9274,-4352.7848 4364.5061,-4436.3542 4231.0734,-4429.2196 C 4230.3667,-4429.1818 4230.021,-4429.2676 4229.3095,-4429.2196 z M 3985.0109,-3987.3655 C 3930.0241,-3983.5106 3865.6744,-3947.6868 3794.5109,-3872.7127 C 3870.2991,-3905.9715 3946.0611,-3940.6462 4004.4137,-3919.4558 C 4088.2001,-3889.0297 4203.8457,-3756.8377 4092.6081,-3311.7961 C 4242.0896,-3666.2822 4168.2685,-3996.7878 3987.6567,-3987.3655 C 3986.7883,-3987.3201 3985.8838,-3987.4267 3985.0109,-3987.3655 z M 4628.8303,-3897.4072 C 4623.2392,-3896.2238 4615.7753,-3893.414 4607.6636,-3891.2336 C 4600.0199,-3889.1787 4592.1287,-3886.7756 4586.497,-3884.178 C 4585.192,-3883.5433 4583.1952,-3882.2626 4582.0872,-3881.5322 C 4581.2352,-3880.9305 4580.1464,-3880.4473 4579.4414,-3879.7683 C 4579.1832,-3879.5027 4578.796,-3878.2849 4578.5595,-3878.0044 C 4578.4466,-3877.8605 4577.7848,-3877.2706 4577.6775,-3877.1225 C 4577.5181,-3876.9317 4576.9494,-3876.4355 4576.7956,-3876.2405 C 4576.7978,-3876.1398 4576.7854,-3875.4794 4576.7956,-3875.3586 C 4576.7594,-3875.2716 4576.1211,-3874.7159 4575.9136,-3874.4766 C 4575.8318,-3874.3756 4575.93,-3873.6393 4575.9136,-3873.5947 C 4575.9207,-3873.4761 4575.9114,-3872.8135 4575.9136,-3872.7127 C 4575.9145,-3872.6128 4575.9083,-3871.9479 4575.9136,-3871.8308 C 4575.8967,-3871.7292 4575.2487,-3871.1806 4575.0317,-3870.9488 C 4574.9487,-3870.8487 4575.0385,-3870.1191 4575.0317,-3870.0669 C 4575.0291,-3869.4748 4575.0421,-3868.6403 4575.0317,-3868.303 C 4575.0317,-3868.0724 4575.0246,-3867.6485 4575.0317,-3867.4211 C 4575.0387,-3867.309 4575.0359,-3866.7669 4575.0317,-3866.5391 C 4575.0317,-3866.4401 4575.0266,-3865.7122 4575.0317,-3865.6572 C 4575.1925,-3865.2573 4575.746,-3864.2898 4575.9136,-3863.8933 C 4575.9117,-3863.7931 4575.9198,-3863.1273 4575.9136,-3863.0113 C 4575.9125,-3862.9117 4575.9001,-3862.1802 4575.9136,-3862.1294 C 4576.1366,-3861.5401 4576.6192,-3860.7888 4576.7956,-3860.3655 C 4576.8588,-3860.2272 4576.7233,-3859.6814 4576.7956,-3859.4836 C 4576.8732,-3859.2671 4577.5988,-3858.7952 4577.6775,-3858.6016 C 4577.7165,-3858.5184 4577.6394,-3857.7843 4577.6775,-3857.7197 C 4577.8748,-3857.4781 4578.503,-3856.9201 4578.5595,-3856.8377 C 4578.7962,-3856.5174 4579.1829,-3856.2597 4579.4414,-3855.9558 C 4579.5086,-3855.8819 4580.1328,-3855.3208 4580.3233,-3855.0738 C 4580.4038,-3854.9725 4580.2884,-3854.2277 4580.3233,-3854.1919 C 4580.7024,-3853.9512 4581.733,-3853.5405 4582.0872,-3853.31 C 4582.558,-3853.0097 4583.5918,-3852.5957 4583.8511,-3852.428 C 4583.9296,-3852.3247 4584.643,-3851.6748 4584.7331,-3851.5461 C 4584.8493,-3851.4851 4585.4793,-3850.7192 4585.615,-3850.6641 C 4585.7652,-3850.6139 4586.3375,-3850.7107 4586.497,-3850.6641 C 4587.1509,-3850.4875 4587.7452,-3849.9642 4588.2608,-3849.7822 C 4593.5141,-3848.0883 4600.7306,-3847.9187 4607.6636,-3849.7822 C 4608.5303,-3850.015 4609.3417,-3850.4352 4610.3095,-3850.6641 C 4610.6851,-3850.7669 4611.7403,-3851.4089 4612.0733,-3851.5461 C 4613.5996,-3852.3679 4616.0609,-3853.3927 4617.365,-3854.1919 C 4618.3471,-3854.8227 4619.96,-3856.126 4620.8928,-3856.8377 C 4621.1014,-3857.0034 4621.5684,-3857.5492 4621.7747,-3857.7197 C 4627.899,-3862.971 4633.0786,-3870.2947 4635.8858,-3877.1225 C 4636.0814,-3877.6248 4636.5945,-3879.2665 4636.7678,-3879.7683 C 4636.9298,-3880.1623 4637.4934,-3881.1388 4637.6497,-3881.5322 C 4637.6655,-3881.5943 4637.6438,-3882.3306 4637.6497,-3882.4141 C 4637.6478,-3882.6114 4637.6641,-3883.0745 4637.6497,-3883.2961 C 4637.6472,-3883.3946 4637.6461,-3884.095 4637.6497,-3884.178 C 4637.8165,-3884.5734 4638.3711,-3885.5482 4638.5317,-3885.9419 C 4638.5579,-3886.1812 4638.5416,-3887.2579 4638.5317,-3887.7058 C 4638.5289,-3887.9028 4638.5249,-3888.47 4638.5317,-3888.5877 C 4638.5382,-3888.8206 4638.5317,-3889.2394 4638.5317,-3889.4697 C 4638.5249,-3889.689 4638.5449,-3891.0256 4638.5317,-3891.2336 C 4638.5345,-3891.3513 4638.5314,-3892.0159 4638.5317,-3892.1155 C 4638.3779,-3892.5219 4637.8174,-3893.4959 4637.6497,-3893.8794 C 4637.6181,-3893.9423 4637.7282,-3894.66 4637.6497,-3894.7613 C 4637.4595,-3894.9863 4636.8429,-3895.5358 4636.7678,-3895.6433 C 4636.7782,-3895.7731 4636.7655,-3896.4225 4636.7678,-3896.5252 C 4636.6673,-3896.5156 4635.9674,-3896.5281 4635.8858,-3896.5252 C 4635.734,-3896.7352 4635.1608,-3897.2048 4635.0039,-3897.4072 C 4634.9068,-3897.4024 4634.2027,-3897.4089 4634.122,-3897.4072 C 4633.9315,-3897.4027 4633.3097,-3897.3996 4633.24,-3897.4072 C 4632.8726,-3897.4106 4631.8735,-3897.4365 4631.4761,-3897.4072 C 4630.8586,-3897.3403 4629.5096,-3897.5364 4628.8303,-3897.4072 z M 3951.497,-3867.4211 C 3951.4219,-3867.3999 3950.7141,-3866.6404 3950.6151,-3866.5391 C 3950.5092,-3866.4099 3950.7107,-3865.7622 3950.6151,-3865.6572 C 3950.573,-3865.6205 3949.7673,-3865.6716 3949.7331,-3865.6572 C 3949.6064,-3865.6668 3948.9533,-3865.6552 3948.8512,-3865.6572 C 3948.8644,-3865.5274 3948.8475,-3864.8791 3948.8512,-3864.7752 C 3948.7484,-3864.6787 3948.0892,-3864.0056 3947.9692,-3863.8933 C 3947.8724,-3863.6757 3947.3308,-3862.5756 3947.0873,-3862.1294 C 3947.0387,-3862.0278 3947.1217,-3861.3344 3947.0873,-3861.2475 C 3947.0876,-3861.1478 3947.0836,-3860.4832 3947.0873,-3860.3655 C 3947.0788,-3860.2617 3947.0842,-3859.7136 3947.0873,-3859.4836 C 3947.0873,-3859.2533 3947.0788,-3857.9528 3947.0873,-3857.7197 C 3947.0802,-3857.3254 3947.0864,-3856.352 3947.0873,-3855.9558 C 3947.0974,-3855.8954 3947.0537,-3855.1563 3947.0873,-3855.0738 C 3947.3402,-3854.5817 3947.7858,-3853.7257 3947.9692,-3853.31 C 3947.9565,-3852.9165 3947.9746,-3851.9406 3947.9692,-3851.5461 C 3947.991,-3851.4837 3947.9314,-3850.7474 3947.9692,-3850.6641 C 3948.2647,-3850.074 3948.6982,-3849.2759 3948.8512,-3848.9002 C 3949.0696,-3848.399 3949.4867,-3846.7568 3949.7331,-3846.2544 C 3953.5067,-3838.9714 3960.7313,-3831.2687 3969.1359,-3825.9697 C 3969.2829,-3825.8808 3969.8448,-3826.0642 3970.0178,-3825.9697 C 3971.1679,-3825.3801 3972.6174,-3824.6788 3973.5456,-3824.2058 C 3975.3067,-3823.3495 3978.6273,-3821.4524 3980.6012,-3820.678 C 3981.0211,-3820.5411 3981.8918,-3819.8988 3982.3651,-3819.7961 C 3983.5845,-3819.5672 3985.6826,-3820.0289 3986.7748,-3819.7961 C 3995.5115,-3817.9326 4003.0853,-3818.1022 4009.7053,-3819.7961 C 4010.5179,-3820.0238 4012.2293,-3819.5627 4013.2331,-3819.7961 C 4013.6113,-3819.8965 4014.7038,-3820.5561 4014.997,-3820.678 C 4015.196,-3820.8835 4015.6814,-3821.3534 4015.8789,-3821.56 C 4016.206,-3821.7276 4017.0496,-3822.1416 4017.6428,-3822.4419 C 4017.7179,-3822.489 4018.4356,-3823.2776 4018.5248,-3823.3239 C 4018.7226,-3823.4153 4019.1951,-3823.2318 4019.4067,-3823.3239 C 4019.5024,-3823.3721 4020.2046,-3824.1558 4020.2887,-3824.2058 C 4020.5923,-3824.51 4021.0436,-3824.9771 4021.1706,-3825.0877 C 4021.496,-3825.3917 4022.6362,-3825.6494 4022.9345,-3825.9697 C 4023.0765,-3826.1339 4023.6813,-3827.5651 4023.8164,-3827.7336 C 4024.0151,-3828.1205 4024.5161,-3829.1015 4024.6984,-3829.4975 C 4024.9944,-3830.0619 4025.354,-3831.5453 4025.5803,-3832.1433 C 4025.5724,-3832.2593 4025.5829,-3832.925 4025.5803,-3833.0252 C 4025.606,-3833.1302 4026.3567,-3833.7091 4026.4623,-3833.9072 C 4026.5932,-3834.1369 4027.2429,-3834.589 4027.3442,-3834.7891 C 4027.3772,-3834.8701 4027.3355,-3835.6169 4027.3442,-3835.6711 C 4027.3389,-3835.8988 4027.3355,-3836.441 4027.3442,-3836.553 C 4027.3533,-3836.7805 4027.3442,-3837.2044 4027.3442,-3837.435 C 4027.3397,-3837.5473 4027.3408,-3838.1168 4027.3442,-3838.3169 C 4027.353,-3838.7738 4027.3705,-3839.8669 4027.3442,-3840.0808 C 4027.1354,-3840.2812 4026.6734,-3840.7638 4026.4623,-3840.9627 C 4026.4293,-3841.0022 4025.5857,-3840.9373 4025.5803,-3840.9627 C 4025.5826,-3841.0632 4025.5736,-3841.7276 4025.5803,-3841.8447 C 4025.5634,-3841.8915 4025.5775,-3842.6259 4025.5803,-3842.7266 C 4025.582,-3842.8268 4025.5992,-3843.5629 4025.5803,-3843.6086 C 4025.4497,-3843.7282 4024.8025,-3844.39 4024.6984,-3844.4905 C 4024.7111,-3844.6113 4024.6956,-3845.2717 4024.6984,-3845.3725 C 4024.5048,-3845.5675 4024.0174,-3846.0636 4023.8164,-3846.2544 C 4023.681,-3846.4023 4023.0767,-3847.8744 4022.9345,-3848.0183 C 4022.6359,-3848.2991 4021.496,-3848.6347 4021.1706,-3848.9002 C 4014.0617,-3854.3336 4001.4523,-3857.2343 3986.7748,-3860.3655 C 3975.2751,-3862.8186 3964.0322,-3865.7404 3956.7887,-3866.5391 C 3955.7509,-3866.6283 3954.1482,-3867.4631 3953.2609,-3867.4211 C 3953.141,-3867.4233 3952.4794,-3867.4208 3952.379,-3867.4211 C 3952.2771,-3867.4228 3951.6195,-3867.4163 3951.497,-3867.4211 z M 4545.9275,-3859.4836 C 4546.2334,-3858.8116 4547.3807,-3858.373 4547.6914,-3857.7197 C 4547.4504,-3858.0869 4547.0491,-3859.1093 4546.8095,-3859.4836 C 4546.7132,-3859.4582 4546.0077,-3859.4898 4545.9275,-3859.4836 z M 4547.6914,-3856.8377 C 4554.1413,-3843.4658 4561.6941,-3833.3224 4569.74,-3826.8516 C 4572.0878,-3825.0279 4575.2312,-3822.9172 4577.6775,-3821.56 C 4600.6038,-3809.3488 4628.2094,-3815.8187 4652.6428,-3821.56 C 4620.4793,-3820.9989 4578.2654,-3810.8177 4547.6914,-3856.8377 z M 4062.622,-3828.6155 C 4025.1753,-3782.2004 3974.2839,-3789.6372 3933.8581,-3790.6919 C 3979.7164,-3782.133 4031.6094,-3773.0519 4063.5039,-3828.6155 C 4063.4534,-3828.6186 4062.6801,-3828.6051 4062.622,-3828.6155 z M 4731.1358,-3288.8656 C 4671.1168,-3271.5478 4665.8003,-3236.1239 4661.4622,-3199.7892 C 4774.5662,-3142.1349 4887.5744,-3093.3367 4987.7816,-3223.6017 C 4898.4606,-3201.0061 4813.0923,-3224.1258 4731.1358,-3288.8656 z M 4033.5178,-3259.7614 C 4032.5114,-3258.4767 4031.8846,-3257.4991 4030.872,-3256.2336 C 4029.8591,-3254.9679 4029.2453,-3253.9524 4028.2262,-3252.7058 C 4028.0766,-3252.5221 4028.376,-3252.0073 4028.2262,-3251.8239 C 4027.3338,-3250.7351 4025.5956,-3250.2522 4024.6984,-3249.1781 C 4020.4741,-3244.1048 4016.6807,-3238.932 4012.3512,-3234.185 C 4011.3002,-3233.0338 4010.7628,-3232.6709 4009.7053,-3231.5392 C 4009.4417,-3231.255 4009.0873,-3230.94 4008.8234,-3230.6572 C 4008.0292,-3229.812 4006.9754,-3228.8456 4006.1776,-3228.0114 C 4006.0077,-3227.833 4006.3475,-3227.3075 4006.1776,-3227.1295 C 4005.2832,-3226.1976 4004.4309,-3225.402 4003.5317,-3224.4836 C 4002.1982,-3223.1115 4001.3473,-3222.2975 4000.0039,-3220.9558 C 3998.9273,-3219.882 3997.5593,-3219.3644 3996.4762,-3218.31 C 3996.3413,-3218.1779 3996.6114,-3217.5599 3996.4762,-3217.4281 C 3996.0424,-3217.0076 3995.1469,-3216.9635 3994.7123,-3216.5461 C 3994.1052,-3215.9608 3993.5574,-3215.3616 3992.9484,-3214.7822 C 3992.0323,-3213.9155 3991.2235,-3212.9893 3990.3026,-3212.1364 C 3990.0297,-3211.8816 3989.6941,-3211.5082 3989.4206,-3211.2545 C 3989.1463,-3211.0019 3988.8136,-3210.624 3988.5387,-3210.3725 C 3987.808,-3209.7003 3987.5083,-3209.2721 3986.7748,-3208.6086 C 3986.2233,-3208.1108 3985.5638,-3208.2197 3985.0109,-3207.7267 C 3984.8732,-3207.6031 3985.1489,-3206.9681 3985.0109,-3206.8447 C 3984.5957,-3206.4759 3983.663,-3206.3288 3983.247,-3205.9628 C 3982.5558,-3205.3515 3982.1768,-3204.8026 3981.4831,-3204.1989 C 3980.9269,-3203.7157 3981.1591,-3203.7953 3980.6012,-3203.317 C 3980.3235,-3203.0768 3979.9975,-3202.6741 3979.7192,-3202.435 C 3979.4398,-3202.1971 3979.117,-3201.7899 3978.8373,-3201.5531 C 3976.8868,-3199.8885 3975.5161,-3198.7475 3973.5456,-3197.1433 C 3972.9812,-3196.6847 3972.3479,-3196.7152 3971.7817,-3196.2614 C 3971.0765,-3195.693 3970.7257,-3195.058 3970.0178,-3194.4975 C 3969.45,-3194.0488 3968.8235,-3194.0595 3968.254,-3193.6156 C 3967.5447,-3193.0596 3967.2018,-3192.3998 3966.4901,-3191.8517 C 3965.9191,-3191.4128 3965.2988,-3191.4035 3964.7262,-3190.9697 C 3964.0127,-3190.4262 3963.6783,-3189.7415 3962.9623,-3189.2058 C 3962.388,-3188.7769 3961.7744,-3188.7478 3961.1984,-3188.3239 C 3960.481,-3187.7928 3960.1545,-3187.0833 3959.4345,-3186.56 C 3958.8568,-3186.1409 3958.25,-3186.0921 3957.6706,-3185.6781 C 3956.3718,-3184.7445 3955.4501,-3183.9404 3954.1428,-3183.0322 C 3953.5601,-3182.6281 3952.9632,-3182.5494 3952.379,-3182.1503 C 3951.0689,-3181.2506 3950.1694,-3180.3791 3948.8512,-3179.5045 C 3948.2636,-3179.1156 3947.6766,-3179.0066 3947.0873,-3178.6225 C 3945.7662,-3177.7564 3944.8891,-3176.8171 3943.5595,-3175.9767 C 3942.226,-3175.1354 3941.3737,-3174.1468 3940.0317,-3173.3308 C 3938.8433,-3172.6038 3937.6992,-3172.2739 3936.504,-3171.567 C 3933.9566,-3170.0633 3932.0262,-3168.5695 3929.4484,-3167.1572 C 3925.8224,-3165.158 3922.5523,-3163.6817 3918.8651,-3161.8656 C 3917.0162,-3160.9565 3914.5558,-3160.0831 3912.6915,-3159.2197 C 3908.9735,-3157.4956 3905.006,-3155.4676 3901.2262,-3153.9281 C 3888.7918,-3148.909 3875.5262,-3144.5868 3862.4206,-3141.5808 C 3860.4253,-3141.1231 3859.1404,-3141.1093 3857.129,-3140.6989 C 3850.4124,-3139.3284 3842.8556,-3138.0116 3835.9623,-3137.1711 C 3835.5028,-3137.1164 3834.6587,-3137.2236 3834.1984,-3137.1711 C 3832.8161,-3137.0136 3831.1781,-3136.4252 3829.7887,-3136.2892 C 3828.4007,-3136.1534 3827.6562,-3136.4035 3826.2609,-3136.2892 C 3823.468,-3136.0597 3820.2628,-3135.5506 3817.4415,-3135.4072 C 3815.3265,-3135.3 3813.3992,-3135.4662 3811.2679,-3135.4072 C 3810.794,-3135.394 3809.9787,-3135.418 3809.504,-3135.4072 C 3806.6546,-3135.3502 3803.5635,-3135.3779 3800.6845,-3135.4072 C 3801.685,-3134.6023 3802.3335,-3133.5446 3803.3304,-3132.7614 C 3804.3272,-3131.9782 3804.983,-3131.7595 3805.9762,-3130.9975 C 3807.2484,-3130.0148 3808.2376,-3129.2994 3809.504,-3128.3517 C 3810.4934,-3127.6111 3811.164,-3127.3075 3812.1498,-3126.5878 C 3813.3004,-3125.7445 3814.5318,-3124.7567 3815.6776,-3123.942 C 3816.66,-3123.2432 3817.3447,-3122.856 3818.3234,-3122.1781 C 3819.9552,-3121.043 3821.1112,-3119.7281 3822.7331,-3118.6503 C 3823.0574,-3118.4358 3823.2911,-3117.9806 3823.6151,-3117.7684 C 3835.4746,-3109.9545 3846.6501,-3104.1669 3858.0109,-3099.2475 C 3858.9431,-3098.8428 3859.7277,-3098.7519 3860.6567,-3098.3656 C 3860.8752,-3098.2741 3861.3202,-3098.4562 3861.5387,-3098.3656 C 3861.7571,-3098.2758 3862.2025,-3098.4545 3862.4206,-3098.3656 C 3868.6978,-3095.7892 3873.922,-3093.075 3880.0595,-3091.31 C 3880.9674,-3091.0476 3881.8005,-3090.6736 3882.7053,-3090.4281 C 3910.9558,-3082.6926 3938.0223,-3083.1244 3963.8442,-3089.5461 C 3966.3295,-3090.1549 3968.4326,-3091.4777 3970.8998,-3092.192 C 3972.5412,-3092.6734 3974.5579,-3092.547 3976.1915,-3093.0739 C 3979.4655,-3094.117 3982.6484,-3095.3847 3985.8928,-3096.6017 C 3986.7023,-3096.9085 3986.849,-3097.1664 3987.6567,-3097.4836 C 3989.2753,-3098.113 3991.3366,-3099.4595 3992.9484,-3100.1295 C 3993.7524,-3100.4673 3994.7919,-3100.6637 3995.5942,-3101.0114 C 3996.3983,-3101.3566 3996.5558,-3101.5386 3997.3581,-3101.8934 C 4000.5613,-3103.3231 4003.882,-3104.7232 4007.0595,-3106.3031 C 4007.8557,-3106.6956 4008.9109,-3106.7834 4009.7053,-3107.185 C 4010.4981,-3107.5889 4011.5598,-3108.536 4012.3512,-3108.9489 C 4013.1442,-3109.3593 4013.3237,-3109.4118 4014.1151,-3109.8309 C 4016.2873,-3110.9899 4019.0091,-3112.1363 4021.1706,-3113.3586 C 4021.9577,-3113.8026 4023.0307,-3114.6704 4023.8164,-3115.1225 C 4025.385,-3116.0316 4026.6627,-3116.8283 4028.2262,-3117.7684 C 4029.9884,-3118.8208 4031.7621,-3120.2062 4033.5178,-3121.2961 C 4034.2971,-3121.781 4034.5036,-3121.6859 4035.2817,-3122.1781 C 4037.6199,-3123.6476 4040.0098,-3125.0559 4042.3373,-3126.5878 C 4043.8864,-3127.6134 4045.2024,-3129.0643 4046.747,-3130.1156 C 4048.4734,-3131.2806 4050.3177,-3131.5656 4052.0387,-3132.7614 C 4055.1197,-3134.9133 4057.7923,-3137.5744 4060.8581,-3139.817 C 4069.3016,-3145.9646 4078.0838,-3152.5271 4086.4345,-3159.2197 C 4090.8332,-3162.7554 4095.2816,-3166.1635 4099.6637,-3169.8031 C 4101.0268,-3170.9342 4102.7117,-3173.0735 4104.0734,-3174.2128 C 4110.111,-3179.2756 4116.5722,-3184.0398 4122.5942,-3189.2058 C 4120.998,-3193.4925 4119.0066,-3197.3353 4117.3026,-3201.5531 C 4117.2179,-3201.7633 4117.3878,-3202.2253 4117.3026,-3202.435 C 4116.5453,-3204.2923 4115.4639,-3206.7832 4114.6567,-3208.6086 C 4114.5653,-3208.8141 4114.749,-3209.2857 4114.6567,-3209.4906 C 4114.5165,-3209.799 4113.9167,-3210.0652 4113.7748,-3210.3725 C 4113.1671,-3211.699 4112.656,-3212.599 4112.0109,-3213.9003 C 4111.7606,-3214.4038 4111.3858,-3215.1646 4111.1289,-3215.6642 C 4110.8721,-3216.1589 4110.5106,-3216.9378 4110.247,-3217.4281 C 4109.8519,-3218.1709 4109.7763,-3218.4596 4109.3651,-3219.192 C 4109.2296,-3219.4347 4109.5022,-3219.8323 4109.3651,-3220.0739 C 4108.9479,-3220.8026 4108.0361,-3221.1204 4107.6012,-3221.8378 C 4107.4869,-3222.028 4107.7169,-3222.5304 4107.6012,-3222.7197 C 4107.4248,-3223.0051 4106.8987,-3223.3183 4106.7192,-3223.6017 C 4106.5722,-3223.8368 4106.8685,-3224.2499 4106.7192,-3224.4836 C 4106.2654,-3225.1889 4105.4295,-3225.5552 4104.9553,-3226.2475 C 4104.7995,-3226.477 4105.1137,-3226.9014 4104.9553,-3227.1295 C 4104.8752,-3227.244 4104.1541,-3227.0152 4104.0734,-3227.1295 C 4100.9427,-3231.5443 4097.6977,-3236.6316 4093.4901,-3240.3586 C 4093.3162,-3240.513 4092.7842,-3240.2054 4092.6081,-3240.3586 C 4091.9124,-3240.9668 4091.5746,-3241.536 4090.8442,-3242.1225 C 4090.6594,-3242.2701 4090.1494,-3241.9763 4089.9623,-3242.1225 C 4089.5003,-3242.4854 4089.5564,-3242.6505 4089.0803,-3243.0045 C 4087.9379,-3243.8681 4086.7802,-3244.8409 4085.5526,-3245.6503 C 4083.2265,-3247.1932 4081.1606,-3248.7293 4078.497,-3250.06 C 4078.2628,-3250.176 4077.8521,-3249.9457 4077.6151,-3250.06 C 4077.2637,-3250.231 4077.0907,-3250.7749 4076.7331,-3250.942 C 4076.5522,-3251.0258 4076.0335,-3250.8593 4075.8512,-3250.942 C 4074.6452,-3251.4906 4073.6002,-3252.2015 4072.3234,-3252.7058 C 4070.2174,-3253.5528 4068.4595,-3253.7523 4066.1498,-3254.4697 C 4065.4555,-3254.6868 4065.0996,-3255.1465 4064.3859,-3255.3517 C 4059.3914,-3256.813 4053.6462,-3258.0692 4047.6289,-3258.8795 C 4046.7693,-3258.9935 4045.8651,-3258.7793 4044.9831,-3258.8795 C 4043.2192,-3259.0827 4041.5471,-3259.6166 4039.6914,-3259.7614 C 4037.8358,-3259.9048 4035.468,-3259.677 4033.5178,-3259.7614 z M 4620.0108,-3189.2058 C 4586.7225,-3044.469 4660.5354,-2694.6589 4378.3581,-2653.8656 C 4285.608,-2640.4572 4190.6086,-2676.9088 4115.5387,-2794.0948 C 4340.8527,-2854.4641 4250.744,-3119.9223 4150.8164,-3114.2406 C 4216.0829,-2982.3367 4155.6145,-2882.9061 4076.7331,-2787.0392 C 4177.025,-2574.9165 4296.1072,-2572.4691 4373.0664,-2583.3101 C 4514.1837,-2603.1892 4685.7593,-2666.276 4620.0108,-3189.2058 z"
           style="opacity:0.05022828;fill:#000000;fill-opacity:1;fill-rule:evenodd;stroke:none;stroke-width:9.45444489;stroke-linecap:butt;stroke-linejoin:miter;stroke-miterlimit:4;stroke-dasharray:none;stroke-opacity:1" />
        <path
           id="path6421"
           d="M 4669.9375,-4489.6875 C 4573.4854,-4489.1837 4477.4981,-4464.115 4392.4063,-4419.125 C 4386.6063,-4414.4018 4393.2479,-4404.8766 4399.75,-4407.1875 C 4509.6126,-4414.5851 4622.1462,-4414.4213 4728.75,-4384.2813 C 4796.0505,-4365.2454 4860.8051,-4331.8652 4907.9063,-4279.3125 C 4951.2223,-4231.5269 4976.7579,-4169.6473 4987.4944,-4106.4214 C 5002.0408,-4019.7006 4993.7232,-3930.7618 4977.2088,-3844.9259 C 4947.4745,-3694.0771 4891.5339,-3550.0348 4830.4375,-3409.375 C 4828.5637,-3401.8703 4840.3433,-3398.2096 4843.75,-3404.7813 C 4898.0422,-3459.5198 4944.8637,-3521.6466 4984.125,-3588 C 5056.8536,-3711.4793 5100.3934,-3852.5393 5106.437,-3995.9978 C 5110.0984,-4080.7945 5101.2249,-4166.9444 5073.6691,-4247.3843 C 5055.3331,-4299.3633 5023.2274,-4346.0159 4982.1905,-4382.5398 C 4917.2821,-4440.8915 4832.692,-4474.3057 4746.5938,-4485.125 C 4721.1878,-4488.4043 4695.5536,-4489.9133 4669.9375,-4489.6875 z M 3591.0625,-4438.875 C 3510.5096,-4437.2622 3427.874,-4421.2985 3359.1235,-4377.6844 C 3300.3771,-4340.8338 3255.5572,-4283.2394 3232.8955,-4217.7508 C 3202.057,-4133.8033 3191.0497,-4043.8875 3189.2659,-3954.7504 C 3187.5396,-3832.4932 3205.2067,-3710.5565 3234.62,-3592.1247 C 3264.6091,-3474.0764 3307.5548,-3358.8559 3368.5385,-3253.2319 C 3404.0903,-3192.6142 3446.6662,-3134.8608 3502.625,-3091.625 C 3538.7904,-3064.4475 3583.7976,-3044.6831 3629.9375,-3049.8125 C 3672.9649,-3054.5464 3711.0959,-3079.1026 3739.8515,-3110.3824 C 3765.7085,-3137.682 3786.9306,-3169.5073 3803.6875,-3203.0938 C 3805.0662,-3210.3091 3794.3141,-3214.1826 3790.3963,-3208.1313 C 3770.2968,-3189.8503 3749.991,-3171.2225 3725.9765,-3158.1584 C 3693.5099,-3139.3558 3653.7138,-3130.0925 3616.9754,-3141.4289 C 3575.9485,-3153.5461 3543.1598,-3184.1834 3517.1563,-3217.0313 C 3473.6408,-3271.9879 3444.3632,-3336.551 3418.4938,-3401.4282 C 3373.9089,-3516.4312 3345.1361,-3636.9606 3323.2388,-3758.2046 C 3313.7926,-3813.647 3305.9285,-3869.4908 3304.375,-3925.7813 C 3304.4451,-3972.5635 3306.5915,-4019.5718 3313.8125,-4065.7813 C 3324.5361,-4129.0968 3349.8429,-4191.6496 3395.2911,-4238.0292 C 3446.005,-4290.8461 3514.7269,-4322.0463 3584.8438,-4339.5938 C 3682.4136,-4364.4328 3784.1925,-4366.4956 3884.375,-4362.7188 C 3890.3713,-4363.4737 3897.5884,-4360.864 3902.8438,-4364.25 C 3907.3451,-4368.8266 3902.9988,-4376.7187 3897.1365,-4377.2525 C 3816.6734,-4409.507 3731.4725,-4430.8714 3644.9063,-4437.2813 C 3626.9905,-4438.5358 3609.022,-4439.1451 3591.0625,-4438.875 z M 4243.3438,-4437.625 C 4194.9724,-4436.3178 4147.8143,-4423.8516 4101.3791,-4411.3477 C 4009.3507,-4384.3468 3920.484,-4339.8893 3852.3438,-4271.5625 C 3814.904,-4233.4925 3787.2066,-4186.7744 3767.8438,-4137.1875 C 3722.7367,-4026.9391 3707.6554,-3906.9443 3705.25,-3788.5313 C 3703.3817,-3676.7715 3713.1632,-3564.5158 3738.5938,-3455.5938 C 3743.8262,-3435.708 3749.298,-3415.1847 3760.2813,-3397.75 C 3766.9773,-3391.5769 3776.919,-3392.5367 3784.93,-3388.8049 C 3857.9203,-3367.2025 3931.7804,-3341.5219 3991.251,-3292.5669 C 3998.3568,-3287.4515 4004.9478,-3280.3236 4013.4063,-3277.8125 C 4020.6367,-3278.2161 4021.4288,-3288.4693 4016.3984,-3292.2901 C 3992.4539,-3325.5035 3977.8923,-3366.0229 3947.5,-3394.3125 C 3911.625,-3427.2996 3863.0275,-3440.1071 3816.6118,-3450.6435 C 3812.1917,-3452.4335 3804.2856,-3450.9532 3805.125,-3457.7813 C 3775.2108,-3583.7463 3773.3726,-3715.4198 3788,-3843.8125 C 3789.0834,-3850.3835 3789.0846,-3857.5455 3790.7813,-3863.7188 C 3798.7872,-3863.7758 3805.1092,-3869.7942 3812.6841,-3871.7947 C 3862.8358,-3893.4338 3914.1822,-3917.9469 3969.9057,-3917.9968 C 4013.417,-3916.1376 4051.6563,-3887.6013 4075.9328,-3852.771 C 4109.6753,-3804.7765 4122.5251,-3745.3527 4127.9701,-3687.6652 C 4135.1783,-3603.5758 4125.6455,-3519.0786 4111.3557,-3436.2655 C 4103.8539,-3393.4685 4093.5639,-3351.2504 4084.375,-3308.875 C 4084.7665,-3302.1862 4095.0393,-3299.4645 4097.9063,-3306.0313 C 4105.908,-3318.5973 4109.1033,-3333.5546 4115.2813,-3347.0313 C 4162.3953,-3471.8426 4189.1335,-3606.338 4178.0625,-3740.0938 C 4172.053,-3805.814 4155.8929,-3872.7897 4117.8438,-3927.5625 C 4091.647,-3964.7351 4050.2379,-3993.376 4003.6563,-3995.3438 C 3955.9835,-3998.0069 3910.4675,-3977.6721 3872.2121,-3950.9552 C 3843.393,-3931.2372 3816.8573,-3908.0521 3793.1875,-3882.4375 C 3806.5127,-3967.4544 3828.6503,-4052.1495 3869.272,-4128.3713 C 3902.3719,-4188.9777 3951.0706,-4240.7577 4011.1997,-4275.071 C 4089.3767,-4320.7449 4182.2909,-4340.7508 4272.3374,-4329.8561 C 4329.2409,-4323.9421 4384.8861,-4306.3694 4433.83,-4276.594 C 4467.6178,-4255.9874 4499.2433,-4231.4504 4533.7748,-4211.7477 C 4579.7653,-4183.9493 4627.4803,-4155.4888 4660.3438,-4111.875 C 4683.4889,-4080.1058 4692.3011,-4038.0493 4682.5938,-3999.9375 C 4649.5833,-4016.4108 4609.6748,-4025.7863 4573.8815,-4012.5099 C 4537.3505,-3998.8981 4513.2432,-3964.1986 4501.125,-3928.375 C 4477.7761,-3861.525 4480.1224,-3788.8841 4489.1675,-3719.6229 C 4505.8379,-3599.7819 4549.0874,-3484.5799 4608.2188,-3379.5625 C 4610.63,-3374.7634 4617.7694,-3370.3295 4621.9375,-3375.7188 C 4626.9099,-3383.3422 4619.4129,-3391.1348 4617.9088,-3398.6173 C 4576.0643,-3508.329 4539.6379,-3621.9639 4532.643,-3739.9327 C 4530.7151,-3776.9411 4532.507,-3814.4935 4541.7813,-3850.4063 C 4550.3746,-3833.2934 4563.3947,-3817.4442 4581.9688,-3810.9375 C 4603.8795,-3802.8392 4628.1276,-3807.3164 4650.0625,-3812.9063 C 4654.8487,-3814.7941 4663.7594,-3815.7086 4662.625,-3822.7813 C 4661.6073,-3828.4576 4655.1112,-3830.3687 4650.0938,-3829.25 C 4626.271,-3828.9022 4600.0653,-3824.5517 4578.7268,-3837.4672 C 4566.1278,-3844.5394 4555.8161,-3856.0582 4551.0625,-3869.8125 C 4550.1,-3868.1362 4544.5004,-3865.3448 4547.6052,-3869.7603 C 4558.8984,-3901.8934 4579.17,-3934.3543 4611.8125,-3947.6563 C 4636.8415,-3956.85 4664.4888,-3953.5331 4690.1875,-3948.75 C 4713.3038,-3850.5322 4715.136,-3748.8792 4716.75,-3648.375 C 4716.8461,-3547.8744 4707.2538,-3445.1629 4668.1906,-3351.8036 C 4657.2267,-3325.8472 4643.8441,-3300.8735 4628.4688,-3277.1875 C 4666.943,-3282.4085 4698.6332,-3309.542 4718.4375,-3341.6875 C 4757.9844,-3404.6239 4772.448,-3479.5121 4778.8567,-3552.6534 C 4783.651,-3612.082 4779.5312,-3671.7555 4773.6401,-3730.9345 C 4769.8144,-3805.358 4786.8425,-3878.4375 4795.4938,-3951.9024 C 4800.1203,-4000.0193 4795.2072,-4050.1695 4773.25,-4093.6875 C 4741.1572,-4161.6196 4686.1315,-4215.494 4626.9218,-4260.3957 C 4578.8532,-4296.6285 4525.1048,-4324.4432 4474.734,-4357.3404 C 4419.5993,-4391.9849 4360.636,-4424.0366 4295.4063,-4433.8125 C 4278.2961,-4436.5595 4260.8007,-4437.8882 4243.3438,-4437.625 z M 4631.9375,-3905.4688 C 4618.6418,-3903.7626 4606.0707,-3898.9163 4593.1875,-3895.2813 C 4581.9338,-3891.9057 4568.8453,-3885.2781 4567.3438,-3872.25 C 4564.8984,-3858.5634 4574.3308,-3844.1805 4588.0625,-3841.625 C 4608.2567,-3836.3485 4629.3829,-3848.5166 4639.125,-3866 C 4645.8415,-3876.4144 4650.1396,-3891.6057 4642.1875,-3902.4375 C 4639.5784,-3905.1133 4635.5335,-3905.6768 4631.9375,-3905.4688 z M 3951.4688,-3875.1875 C 3940.503,-3874.1765 3936.503,-3860.2823 3939.875,-3851.1563 C 3944.5905,-3830.9363 3963.6575,-3817.1662 3982.75,-3811.8438 C 3997.8238,-3809.9295 4015.998,-3808.3652 4027.7813,-3819.875 C 4034.1215,-3827.0766 4038.6798,-3838.7351 4032.3924,-3847.4071 C 4026.3467,-3859.9571 4010.6832,-3862.5124 3998.5,-3865.875 C 3982.9303,-3869.3808 3967.3137,-3873.5493 3951.4688,-3875.1875 z M 4074.0313,-3838.0313 C 4067.32,-3836.2072 4058.0495,-3838.3921 4054.0625,-3831.125 C 4034.1992,-3805.9057 4000.065,-3796.1716 3968.8128,-3797.6502 C 3954.9111,-3797.6042 3940.4407,-3799.9824 3926.875,-3796.6875 C 3920.8877,-3792.6198 3925.5622,-3782.8107 3932.2847,-3783.2034 C 3959.2708,-3777.3208 3987.9872,-3772.6945 4015.25,-3779.9063 C 4036.8332,-3785.4406 4055.293,-3799.8659 4066.875,-3818.7813 C 4071.0251,-3825.2031 4074.6066,-3831.9271 4078.0313,-3838.75 C 4076.6979,-3838.5104 4075.3646,-3838.2708 4074.0313,-3838.0313 z M 4731.75,-3297.4375 C 4702.8559,-3290.2185 4673.7823,-3272.9906 4662.7813,-3244.0938 C 4656.621,-3228.5256 4654.8527,-3211.651 4652.8438,-3195.1563 C 4709.1171,-3166.8064 4767.2573,-3136.9395 4831.2813,-3133 C 4883.1134,-3129.8885 4934.2467,-3152.8584 4969.3554,-3190.2463 C 4983.8161,-3204.8331 4996.4092,-3221.244 5008.6563,-3237.7813 C 4941.6434,-3214.3685 4865.1696,-3219.4801 4802.3243,-3252.541 C 4777.511,-3264.9257 4754.3477,-3280.4398 4732.7813,-3297.75 L 4731.8242,-3297.46 L 4731.75,-3297.4375 z M 4034.0313,-3267.8125 C 4025.1744,-3266.5503 4022.8133,-3256.4044 4016.4447,-3251.5574 C 3988.1356,-3216.5539 3952.4526,-3187.6411 3912.0659,-3167.3659 C 3871.9159,-3147.9247 3826.6668,-3140.8475 3782.1595,-3143.8183 C 3782.7508,-3141.5318 3787.5091,-3137.2068 3790.0731,-3134.3465 C 3804.2049,-3120.8945 3820.739,-3109.7207 3837.7188,-3100.0938 C 3866.7834,-3085.5665 3898.9033,-3074.6325 3931.875,-3076.875 C 3962.7586,-3078.0188 3992.1265,-3088.9578 4019.1099,-3103.3912 C 4060.5655,-3125.6731 4096.2876,-3156.8312 4132.25,-3186.9063 C 4122.4067,-3210.6053 4113.6311,-3237.8989 4090.6257,-3252.0378 C 4073.9303,-3262.9747 4053.9411,-3267.3736 4034.0313,-3267.8125 z M 4619.125,-3208.9063 C 4607.3324,-3183.3517 4606.4364,-3154.5965 4603.7248,-3126.9451 C 4597.1311,-3032.6386 4600.694,-2936.4074 4575.5313,-2844.5313 C 4562.3077,-2796.3455 4539.3286,-2748.6867 4501.1005,-2715.3935 C 4466.9515,-2684.511 4422.0578,-2668.2504 4377.0938,-2661.6563 C 4329.94,-2655.0326 4280.3832,-2662.1302 4238.4878,-2685.0239 C 4192.8761,-2708.7631 4156.6851,-2746.9919 4128.25,-2789.375 C 4176.9257,-2803.887 4222.9794,-2835.1614 4245.8125,-2881.5625 C 4278.3336,-2947.5113 4265.8757,-3031.6724 4219.2526,-3087.7568 C 4201.465,-3108.8272 4174.7688,-3124.8381 4146.2813,-3122.1875 C 4142.755,-3122.8876 4137.8175,-3119.876 4140.4688,-3116.0313 C 4152.6556,-3095.4217 4160.3987,-3072.3513 4165.5938,-3048.9688 C 4174.1308,-3010.1584 4171.4255,-2969.0528 4157.5625,-2931.875 C 4138.9151,-2878.5364 4103.9775,-2833.3679 4068.875,-2789.7813 C 4066.5656,-2783.2689 4073.4778,-2778.437 4074.8944,-2772.4924 C 4106.2682,-2708.9406 4147.267,-2647.3056 4207.0254,-2607.4229 C 4253.7749,-2576.5439 4312.3607,-2565.9742 4367.4399,-2574.6047 C 4423.7993,-2581.2385 4481.4097,-2596.2907 4526.5,-2632.1563 C 4562.9683,-2660.3687 4588.7887,-2700.1824 4605.6867,-2742.7919 C 4632.4153,-2809.748 4639.792,-2882.5675 4642.1069,-2954.1558 C 4644.0366,-3033.4829 4637.9173,-3112.9451 4627.375,-3191.4688 C 4625.5311,-3199.1924 4623.3783,-3206.8653 4621.375,-3214.5625 C 4620.625,-3212.6771 4619.875,-3210.7917 4619.125,-3208.9063 z"
           style="opacity:0.05022828;fill:#000000;fill-opacity:1;fill-rule:evenodd;stroke:none;stroke-width:9.45444489;stroke-linecap:butt;stroke-linejoin:miter;stroke-miterlimit:4;stroke-dasharray:none;stroke-opacity:1" />
        <path
           id="path6431"
           d="M 4669.8125,-4505.6875 C 4568.6924,-4504.5185 4467.0838,-4479.4891 4379.3125,-4428.9688 C 4377.7752,-4424.9333 4373.5258,-4429.9455 4370.6314,-4430.1148 C 4305.3333,-4455.8305 4231.8825,-4460.4325 4163.817,-4443.2635 C 4054.932,-4420.7276 3947.8683,-4377.674 3863.407,-4303.9939 C 3815.2936,-4262.1259 3778.7313,-4207.7038 3755.1718,-4148.655 C 3715.3603,-4053.2352 3697.8919,-3949.8613 3691.4146,-3846.9702 C 3685.6365,-3746.7111 3690.4504,-3645.8059 3704.8034,-3546.4796 C 3712.179,-3498.0666 3721.6423,-3449.6532 3738.625,-3403.6563 C 3744.2342,-3390.0511 3756.0172,-3378.1906 3771.107,-3376.1263 C 3848.5119,-3354.3273 3926.7876,-3326.6243 3989.125,-3274.2188 C 3993.9367,-3269.7061 4000.0284,-3265.6826 4005.7813,-3263.375 C 3967.4823,-3216.4657 3915.6852,-3178.3776 3855.9063,-3164.7813 C 3836.711,-3160.4587 3816.9915,-3158.9255 3797.3125,-3159.25 C 3806.628,-3174.4467 3817.7011,-3189.8938 3819.6563,-3208 C 3817.2885,-3226.4404 3789.3084,-3234.106 3778.3438,-3218.7813 C 3748.8764,-3190.8126 3715.3651,-3164.1114 3674.9375,-3155.0313 C 3638.2307,-3146.2273 3599.7748,-3160.398 3571.3438,-3183.875 C 3522.6825,-3224.6242 3490.4833,-3281.2909 3463.3824,-3337.927 C 3409.3778,-3452.3142 3376.53,-3575.3189 3350.9471,-3698.9009 C 3331.4072,-3795.5641 3315.4934,-3894.0807 3321.9657,-3993.0236 C 3325.196,-4039.589 3331.2402,-4086.6272 3347.231,-4130.5595 C 3366.2728,-4182.3557 3400.1104,-4228.8912 3445.5466,-4260.5315 C 3510.3393,-4307.2593 3589.357,-4328.2888 3667.5313,-4339.375 C 3745.4231,-4350.0771 3824.4349,-4348.4246 3902.875,-4347.0938 C 3920.3735,-4349.5231 3927.2549,-4375.6262 3913,-4386.1563 C 3900.24,-4396.4725 3883.2279,-4398.3692 3868.5554,-4404.9889 C 3760.3661,-4443.639 3643.7648,-4463.8866 3528.875,-4450.75 C 3451.0037,-4441.5383 3372.8936,-4415.1206 3312.8438,-4363.4063 C 3260.912,-4318.8828 3225.4002,-4257.3287 3207.0381,-4191.6687 C 3179.2042,-4096.8291 3170.2723,-3997.2777 3173.9124,-3898.6892 C 3179.4796,-3753.849 3206.8901,-3610.0438 3253.1875,-3472.7813 C 3286.8932,-3375.4549 3328.5316,-3279.9491 3386.8505,-3194.7091 C 3422.2908,-3144.2572 3463.2706,-3095.7234 3516.3899,-3063.2061 C 3554.4996,-3039.6976 3601.1277,-3026.6977 3645.8125,-3036.0938 C 3693.6463,-3045.4188 3733.8336,-3077.1389 3764.4234,-3113.7085 C 3768.0983,-3118.0454 3771.6093,-3122.5168 3775.0625,-3127.0313 C 3791.3358,-3109.5026 3812.1052,-3096.4577 3832.8125,-3084.6875 C 3876.0829,-3061.7641 3928.5232,-3053.1996 3975.9063,-3068.25 C 4038.3473,-3086.3541 4088.7912,-3129.534 4137.6745,-3170.6402 C 4142.2811,-3174.4811 4146.8914,-3178.3177 4151.5,-3182.1563 C 4139.5063,-3211.1525 4129.4728,-3244.0279 4103,-3263.0625 C 4083.384,-3276.7131 4059.4568,-3283.5868 4035.5938,-3283.5938 C 4036.6019,-3298.5715 4023.1614,-3308.2522 4017.125,-3320.6563 C 3995.9141,-3356.2129 3976.9758,-3395.7884 3941.7813,-3419.5 C 3905.7148,-3445.3082 3862.0224,-3456.6684 3819.3438,-3466.5938 C 3790.8904,-3592.4898 3789.2307,-3723.516 3805.25,-3851.3438 C 3856.5996,-3872.3001 3907.5058,-3900.0083 3964.0938,-3901.7188 C 3999.3417,-3902.4872 4031.524,-3882.2553 4053.1875,-3855.9375 C 4054.4303,-3853.9705 4058.333,-3851.242 4054.25,-3850.625 C 4052.1583,-3849.9096 4049.0176,-3846.6102 4048.8438,-3850.625 C 4041.7902,-3868.566 4022.3979,-3877.7356 4004.2702,-3880.8211 C 3987.0274,-3884.6642 3969.8128,-3889.6502 3952.1563,-3890.9688 C 3937.9529,-3890.6346 3925.0328,-3879.3903 3923.5,-3865.0938 C 3920.0678,-3845.8825 3930.708,-3826.9886 3944.5625,-3814.5 C 3932.5274,-3814.46 3917.1607,-3813.6254 3910.5938,-3801.7188 C 3903.1983,-3787.9519 3913.315,-3769.0083 3928.8438,-3767.3438 C 3958.2135,-3761.0958 3989.1848,-3756.4187 4018.719,-3764.4033 C 4044.6544,-3770.4839 4066.6463,-3788.0531 4080.665,-3810.3729 C 4082.9606,-3811.4304 4084.6149,-3802.4346 4086.5054,-3799.6716 C 4113.2057,-3734.4417 4115.8005,-3662.1338 4113.6065,-3592.3141 C 4109.7338,-3496.1875 4088.4996,-3401.9723 4068.5938,-3308.1875 C 4068.1799,-3290.4372 4092.3849,-3279.2654 4105.7188,-3290.9688 C 4116.776,-3300.1311 4118.7535,-3315.4121 4124.8978,-3327.7135 C 4176.6627,-3460.0055 4206.5347,-3603.3792 4193.4109,-3745.831 C 4186.9006,-3816.115 4168.1392,-3887.7698 4124.88,-3944.6596 C 4098.1145,-3980.3621 4057.308,-4005.5674 4012.6018,-4010.7513 C 3975.3895,-4015.3345 3937.809,-4004.7356 3904.5408,-3988.7137 C 3872.8281,-3973.2282 3844.457,-3951.8753 3817.8438,-3928.8438 C 3835.3349,-4015.0175 3863.4289,-4101.1804 3916.875,-4172.1563 C 3984.3471,-4258.8474 4091.895,-4310.1427 4200.9924,-4316.0586 C 4292.9234,-4321.579 4386.9289,-4295.5262 4460.5939,-4239.8583 C 4502.6836,-4210.3104 4548.2473,-4185.6971 4590.5286,-4156.2571 C 4620.7777,-4134.3567 4650.0904,-4107.5967 4663.5,-4071.7813 C 4668.9946,-4056.2149 4671.4116,-4039.5292 4670.125,-4022.9688 C 4630.8052,-4038.7656 4582.6583,-4040.5725 4546.3195,-4016.3273 C 4509.3551,-3992.217 4488.1308,-3950.3296 4478.413,-3908.1955 C 4458.5764,-3829.4436 4466.6879,-3746.7694 4481.7551,-3667.9041 C 4503.7839,-3560.7586 4543.5551,-3457.05 4600.375,-3363.5625 C 4612.5839,-3350.7454 4639.0123,-3359.3063 4639.2188,-3377.75 C 4640.3712,-3395.1142 4628.7261,-3409.564 4624.7979,-3425.8118 C 4584.2957,-3534.3784 4550.3399,-3647.5298 4547.9495,-3764.2812 C 4547.8727,-3780.0276 4548.7713,-3795.7802 4550.7188,-3811.4063 C 4571.8288,-3792.4546 4602.3808,-3786.6655 4629.8252,-3792.3032 C 4645.8028,-3794.6953 4663.3533,-3797.7984 4675.2188,-3809.4688 C 4685.1215,-3824.0943 4672.0399,-3847.1491 4654.1875,-3845.2813 C 4650.8084,-3845.6359 4646.8044,-3845.2681 4643.8125,-3845.375 C 4658.8978,-3860.9697 4667.6257,-3885.6818 4658.5313,-3906.5938 C 4652.0566,-3919.1849 4635.7708,-3924.8447 4622.6421,-3919.972 C 4610.6894,-3917.681 4598.9136,-3914.2443 4587.4375,-3910.125 C 4602.1236,-3927.5381 4624.545,-3939.1698 4647.6875,-3937.4375 C 4657.4885,-3937.4366 4667.2068,-3936.3882 4676.8438,-3934.8438 C 4700.8444,-3821.5498 4701.2339,-3704.9791 4699.5512,-3589.6572 C 4695.4841,-3497.1219 4679.523,-3402.9844 4635.519,-3320.6065 C 4624.3482,-3299.6624 4611.3732,-3279.669 4597.9375,-3260.0313 C 4605.737,-3259.0855 4615.1608,-3259.7397 4622.0625,-3259.6563 C 4606.1228,-3222.1702 4589.7507,-3183.5348 4588.9857,-3142.2304 C 4580.3597,-3042.656 4586.3419,-2940.692 4558.6331,-2843.7255 C 4543.3962,-2788.5829 4511.8945,-2734.6824 4460.75,-2706.0625 C 4398.0209,-2670.4664 4317.3159,-2664.1561 4251.9063,-2696 C 4212.4948,-2715.371 4179.2237,-2746.0534 4153.8125,-2781.1875 C 4208.4995,-2802.5179 4256.3005,-2847.1529 4271.9375,-2904.8438 C 4293.6842,-2979.6473 4270.83,-3067.5342 4210.6217,-3117.8289 C 4189.1354,-3133.9676 4160.0047,-3143.8932 4133.4375,-3135.125 C 4121.7355,-3128.5161 4121.3556,-3110.6707 4130.1875,-3101.5 C 4161.1472,-3043.5621 4162.4298,-2970.5695 4132.3125,-2912.0938 C 4112.4806,-2869.2804 4081.425,-2832.7762 4053.8438,-2794.6875 C 4048.9251,-2781.2516 4059.3096,-2768.9821 4064.5482,-2757.453 C 4098.1685,-2690.6932 4143.8274,-2626.5728 4208.8363,-2587.409 C 4263.8721,-2555.196 4331.3683,-2549.2667 4393.237,-2561.8797 C 4455.0957,-2571.8731 4517.3646,-2595.238 4560.9155,-2641.6936 C 4607.1633,-2689.8941 4631.9628,-2754.7131 4644.3171,-2819.4636 C 4664.8097,-2925.0815 4659.6956,-3033.6301 4649.8554,-3140.1724 C 4648.4046,-3153.9871 4646.6529,-3167.689 4644.5,-3181.4063 C 4702.2395,-3152.0984 4762.1439,-3122.1422 4827.7813,-3117.0938 C 4892.4472,-3112.4611 4956.1095,-3145.0053 4995.5542,-3195.1676 C 5016.5938,-3220.6719 5036.0805,-3247.3487 5054.9063,-3274.5313 C 5013.0583,-3252.4016 4966.1488,-3238.207 4918.3125,-3239.5 C 4862.3644,-3239.6895 4808.2841,-3261.5388 4763.8154,-3294.462 C 4754.6274,-3301.0754 4745.6322,-3307.9704 4736.625,-3314.9375 C 4729.1424,-3314.2797 4720.4007,-3311.1275 4714.5313,-3309.25 C 4741.4361,-3341.0905 4757.9919,-3380.1859 4770.7642,-3419.5179 C 4790.7637,-3484.6033 4797.6652,-3553.2218 4796.9404,-3621.1867 C 4795.9852,-3672.0808 4788.946,-3722.7341 4789.4181,-3773.6553 C 4792.3711,-3851.103 4815.1555,-3926.6207 4812.6899,-4004.3732 C 4809.2612,-4061.3536 4786.0405,-4115.7785 4751.3784,-4160.6509 C 4698.6604,-4232.4138 4625.0335,-4285.5138 4548.9244,-4330.4168 C 4514.2177,-4351.4958 4479.8265,-4373.0967 4444.8438,-4393.7188 C 4551.5307,-4398.5262 4660.9392,-4393.3318 4762.0889,-4356.608 C 4830.6695,-4331.0432 4894.0957,-4285.4878 4930.5938,-4221.0938 C 4971.3155,-4150.1753 4981.9993,-4066.3466 4978.3149,-3985.6896 C 4972.9804,-3860.983 4938.7841,-3739.7092 4898.3222,-3622.4012 C 4872.9081,-3550.6053 4843.362,-3480.5944 4814.3125,-3410.2188 C 4811.3793,-3391.3737 4836.9551,-3378.2793 4851.5,-3389.5 C 4950.4712,-3489.6438 5027.9169,-3611.2935 5074.0625,-3744.5625 C 5120.1531,-3877.3912 5136.1392,-4022.0211 5112.3125,-4161.0938 C 5103.7526,-4208.1243 5090.8035,-4254.8276 5069.1563,-4297.5625 C 5024.1346,-4382.5618 4943.1687,-4445.1349 4852.9272,-4476.3864 C 4794.3869,-4497.1916 4731.9185,-4506.266 4669.8125,-4505.6875 z M 4657.0313,-3267.5 C 4646.0124,-3250.9395 4641.3391,-3231.0503 4638.6563,-3211.5 C 4635.0061,-3227.868 4629.4978,-3244.5323 4625.8438,-3260.4063 C 4636.7732,-3261.747 4647.5677,-3264.4475 4657.7188,-3268.5 L 4657.1522,-3267.676 L 4657.0313,-3267.5 z"
           style="opacity:0.05022828;fill:#000000;fill-opacity:1;fill-rule:evenodd;stroke:none;stroke-width:9.45444489;stroke-linecap:butt;stroke-linejoin:miter;stroke-miterlimit:4;stroke-dasharray:none;stroke-opacity:1" />
        <path
           id="path6449"
           d="M 4669.7813,-4517.6875 C 4567.4288,-4516.6792 4465.0011,-4491.1352 4375.7188,-4440.9063 C 4303.2561,-4470.4917 4221.0649,-4471.9856 4145.8777,-4451.8772 C 4071.3645,-4434.7379 3998.5627,-4408.3207 3932.75,-4369.25 C 3933.0599,-4384.2591 3922.5673,-4398.0702 3908.4152,-4402.7538 C 3887.0927,-4412.6908 3863.9757,-4418.2543 3842.0625,-4426.625 C 3730.6867,-4462.3943 3610.8287,-4477.9836 3494.8442,-4457.8013 C 3413.8333,-4443.5551 3334.4141,-4407.8549 3278.2188,-4346.6875 C 3226.4582,-4290.976 3197.2835,-4217.9699 3182.4706,-4144.1801 C 3151.6318,-4005.1817 3157.4135,-3860.5289 3179.6947,-3720.7132 C 3206.5149,-3554.0829 3259.0412,-3390.7275 3342,-3243.4688 C 3381.7705,-3174.8611 3430.4093,-3109.4108 3495.1563,-3062.5625 C 3536.5996,-3033.7397 3587.9415,-3015.0219 3639,-3022.6875 C 3693.579,-3030.6846 3740.5393,-3065.0846 3774.5045,-3107.0944 C 3777.2938,-3111.9279 3781.0417,-3103.5759 3784.4694,-3102.3141 C 3831.5527,-3063.7751 3894.3336,-3040.9546 3955.5176,-3051.1956 C 4013.2908,-3060.8729 4063.1584,-3094.5149 4108.027,-3130.4717 C 4127.5896,-3146.198 4146.5716,-3162.6282 4165.9375,-3178.5938 C 4152.4613,-3210.613 4142.1539,-3246.6394 4114.3125,-3269.4375 C 4111.2909,-3272.0132 4107.5592,-3274.2839 4104.625,-3276.4063 C 4121.7668,-3283.759 4128.6581,-3302.7522 4134.4063,-3319.0938 C 4166.7114,-3401.2544 4190.9791,-3486.8433 4201.875,-3574.5625 C 4211.9115,-3655.9384 4211.6498,-3739.4478 4193.8034,-3819.6612 C 4180.2349,-3877.4336 4155.3437,-3934.4257 4112.5313,-3976.4688 C 4070.2677,-4016.2231 4007.2421,-4033.95 3950.779,-4018.292 C 3908.9916,-4008.0574 3870.9114,-3986.3882 3837.0625,-3960.1563 C 3856.306,-4040.6234 3886.8586,-4120.6372 3942.0313,-4183.4688 C 4014.0715,-4262.9359 4122.2638,-4306.4108 4229.25,-4304.8125 C 4315.7355,-4304.4261 4401.1513,-4273.2392 4468.6563,-4219.6563 C 4521.9006,-4183.4572 4582.0908,-4155.8868 4626.8125,-4108.6875 C 4643.7774,-4089.5074 4656.4853,-4065.6011 4658.2813,-4039.8125 C 4614.0545,-4053.5874 4561.2948,-4047.4948 4526.0938,-4016.2188 C 4488.6021,-3984.3351 4469.8488,-3936.0509 4461.8438,-3888.4688 C 4446.2617,-3802.9979 4458.1453,-3715.2043 4477.6739,-3631.4346 C 4501.2789,-3534.2761 4538.9478,-3440.2825 4591.75,-3355.3125 C 4603.3419,-3342.4307 4624.5837,-3342.8056 4637.9688,-3352.75 C 4621.9421,-3316.5598 4599.93,-3283.691 4577.375,-3251.3125 C 4586.0566,-3249.3228 4594.8709,-3247.8786 4603.7813,-3247.5938 C 4586.6705,-3208.1248 4575.4264,-3165.6838 4575.4272,-3122.4147 C 4568.9617,-3028.6764 4572.5316,-2932.7986 4545.625,-2841.875 C 4530.4554,-2789.3742 4498.6031,-2738.7627 4448.9213,-2713.1867 C 4385.0686,-2679.3325 4302.5306,-2677.3459 4240.4063,-2716.0938 C 4214.4472,-2731.7993 4191.3511,-2752.416 4172.9375,-2776.3438 C 4230.9145,-2803.0789 4277.5073,-2857.0682 4288.1875,-2920.9375 C 4302.8071,-2997.161 4275.7938,-3082.0036 4214.0313,-3130.2188 C 4189.4424,-3147.5083 4156.5917,-3156.5419 4127.5,-3145.5313 C 4109.6013,-3135.6768 4107.2826,-3108.2966 4120.6563,-3093.7813 C 4152.3636,-3033.7714 4148.1102,-2957.4191 4112.6797,-2899.8313 C 4092.6949,-2863.101 4064.3015,-2831.9728 4041.9063,-2796.875 C 4036.6221,-2778.6914 4048.9284,-2761.9929 4056.5938,-2746.6563 C 4091.2149,-2678.8873 4138.8121,-2614.7236 4205.2445,-2575.6622 C 4265.0661,-2541.6175 4338.0086,-2536.9153 4404.4056,-2551.5747 C 4468.0765,-2562.8853 4531.4476,-2589.9624 4574.8937,-2638.9926 C 4625.1324,-2695.1904 4649.842,-2769.3576 4660.5541,-2842.9957 C 4676.6467,-2948.1626 4671.0353,-3055.3393 4659.3125,-3160.6875 C 4716.1753,-3131.7572 4777.0831,-3105.3869 4841.9998,-3104.6759 C 4910.389,-3105.4135 4974.857,-3143.8308 5013.9312,-3198.8481 C 5041.2043,-3233.1811 5066.7117,-3268.8378 5089.3125,-3306.375 C 5039.4395,-3277.2225 4984.595,-3251.5248 4925.6563,-3251.3438 C 4859.9769,-3249.6934 4797.6731,-3279.5136 4748.375,-3321.25 C 4746.1718,-3322.9452 4743.7727,-3324.3255 4741.1875,-3325.4063 C 4782.3038,-3389.996 4798.6821,-3466.9086 4806.2418,-3542.2732 C 4812.3475,-3609.9601 4806.3766,-3677.8768 4801.6448,-3745.434 C 4799.2166,-3808.9235 4813.8106,-3871.1441 4821.3625,-3933.7629 C 4827.3447,-3983.2826 4826.7896,-4034.905 4808.5324,-4081.941 C 4782.5123,-4152.4827 4731.3209,-4210.6578 4674.5038,-4258.3848 C 4616.4587,-4306.6677 4550.2319,-4343.5767 4486.0625,-4383 C 4587.2086,-4384.7822 4690.9567,-4375.3073 4784.4034,-4334.4461 C 4850.4986,-4304.2061 4908.5509,-4251.6656 4935.9774,-4183.3425 C 4969.509,-4104.8462 4971.5352,-4016.9292 4962.1932,-3933.1051 C 4947.7833,-3800.4885 4905.7129,-3672.8582 4857.9487,-3548.9 C 4840.0437,-3502.6514 4819.9985,-3457.059 4802.3125,-3410.75 C 4799.0487,-3385.1296 4831.0834,-3364.4192 4853.25,-3376.9063 C 4866.0947,-3384.4247 4874.4853,-3397.2408 4885.1201,-3407.431 C 5033.2157,-3567.7119 5126.5085,-3780.0361 5134.6553,-3999.0287 C 5138.2292,-4093.3416 5126.7699,-4189.4125 5091.8014,-4277.3912 C 5058.8621,-4356.1635 4995.3896,-4419.7235 4920.4582,-4459.6986 C 4843.9888,-4500.8373 4756.3066,-4518.6477 4669.7813,-4517.6875 z M 3823.1875,-4336.125 C 3843.0963,-4336.1958 3862.9993,-4335.631 3882.9063,-4335.4688 C 3823.194,-4291.1847 3776.0334,-4230.284 3747.5851,-4161.7251 C 3707.5389,-4068.7444 3688.7556,-3967.8908 3680.7935,-3867.3238 C 3672.6726,-3757.2616 3677.984,-3646.291 3694.1511,-3537.2235 C 3701.6776,-3489.4462 3711.4672,-3441.6477 3728.8125,-3396.4688 C 3735.8358,-3380.5928 3749.9808,-3368.2964 3767.0795,-3364.4205 C 3785.2573,-3359.4719 3803.3094,-3354.8137 3821.0526,-3348.4584 C 3880.895,-3328.6538 3939.5706,-3301.7512 3987.4375,-3260.0938 C 3949.3119,-3217.6153 3899.2796,-3184.1672 3842.3264,-3174.3338 C 3834.5442,-3173.0336 3826.7581,-3172.0749 3818.8438,-3171.8125 C 3827.2153,-3185.6527 3835.0505,-3203.0738 3828.75,-3219.3125 C 3818.6456,-3240.7725 3784.3372,-3246.3027 3769.5,-3226.9375 C 3739.6632,-3198.5325 3704.8389,-3171.052 3662.7188,-3165.125 C 3622.4178,-3160.5421 3584.7008,-3183.1993 3558.5938,-3212.2188 C 3506.7058,-3266.8205 3475.4967,-3336.8317 3447.1672,-3405.7751 C 3395.6739,-3535.3805 3365.7146,-3672.3217 3343.3257,-3809.6886 C 3329.4514,-3907.0011 3326.0233,-4007.9894 3351.0858,-4103.7744 C 3367.7634,-4163.2071 3403.721,-4218.1639 3455.2813,-4252.75 C 3519.9183,-4298.1315 3598.6327,-4318.2331 3676.0859,-4328.3129 C 3724.8519,-4334.473 3774.0706,-4336.1747 3823.1875,-4336.125 z M 4659.5313,-3924.9375 C 4665.5577,-3925.5629 4668.4137,-3922.5718 4668.2215,-3916.4465 C 4669.1861,-3912.2128 4669.4853,-3910.543 4667.3438,-3914.8438 C 4665.0395,-3918.7543 4662.1754,-3922.4434 4658.4063,-3925.0313 L 4659.4028,-3924.9482 L 4659.5313,-3924.9375 z M 4674.6875,-3878.5625 C 4676.0176,-3868.6451 4677.9115,-3857.3788 4678.5,-3848.3125 C 4674.8501,-3851.5597 4670.5759,-3854.0818 4666.0938,-3856.0313 C 4670.478,-3864.2992 4673.1926,-3873.5772 4674,-3882.9688 C 4674.2292,-3881.5 4674.4583,-3880.0313 4674.6875,-3878.5625 z M 3916.7188,-3881.75 C 3906.5266,-3863.8737 3910.4421,-3840.5198 3920.8125,-3824 C 3906.5355,-3819.1769 3894.3872,-3805.5658 3896.0625,-3789.75 C 3896.966,-3771.4695 3912.5774,-3756.0504 3930.6412,-3754.2332 C 3953.945,-3750.2674 3977.5522,-3746.2989 4001.2813,-3749.0938 C 4029.5943,-3751.5982 4057.138,-3763.9881 4076.25,-3785.1563 C 4080.1861,-3790.9325 4080.2509,-3779.0837 4082.2188,-3776.5313 C 4105.9718,-3703.4512 4104.5368,-3625.002 4098.7099,-3549.1049 C 4091.4897,-3467.4026 4072.2794,-3387.2304 4056.6563,-3306.75 C 4056.0707,-3302.2186 4059.0977,-3296.3791 4059.6563,-3293.4375 C 4055.1654,-3294.4965 4049.6283,-3294.1371 4045.7813,-3296 C 4039.6675,-3313.363 4025.123,-3326.0472 4018.123,-3342.9897 C 3997.1698,-3380.2593 3972.6848,-3418.147 3934.0335,-3438.8701 C 3901.9222,-3457.7563 3865.6345,-3468.027 3829.5313,-3476.5313 C 3803.3406,-3596.6284 3801.5962,-3721.1981 3816.4688,-3842.9688 C 3849.6873,-3856.7421 3882.1905,-3872.9867 3916.9688,-3882.1875 L 3916.7188,-3881.75 z M 4683.4688,-3798.5938 C 4689.5526,-3716.7399 4689.4869,-3634.4736 4685.2063,-3552.5384 C 4680.6277,-3495.5699 4670.3795,-3438.7665 4650.9375,-3384.9688 C 4648.2777,-3406.5094 4635.4342,-3425.0097 4630.2219,-3445.8808 C 4591.7853,-3550.9248 4560.4029,-3660.7014 4560.087,-3773.4684 C 4560.4558,-3778.6655 4559.8816,-3785.406 4561.0313,-3789.6875 C 4593.8615,-3772.8335 4633.8326,-3776.3567 4667.2802,-3789.6124 C 4673.2506,-3792.3699 4678.9449,-3796.0855 4683.2813,-3801.125 C 4683.3438,-3800.2813 4683.4063,-3799.4375 4683.4688,-3798.5938 z"
           style="opacity:0.05022828;fill:#000000;fill-opacity:1;fill-rule:evenodd;stroke:none;stroke-width:9.45444489;stroke-linecap:butt;stroke-linejoin:miter;stroke-miterlimit:4;stroke-dasharray:none;stroke-opacity:1" />
      </g>
      <g
         transform="matrix(2.106557,4.1173274e-2,0,2.1770056,4281.3034,4760.7251)"
         id="g2650">
        <path
           id="path3177"
           d="M -2879.2369,-4616.2021 C -2945.8531,-4613.5796 -3013.4955,-4595.8267 -3074.1466,-4565.0493 C -2585.1584,-4601.9682 -2492.7438,-4324.3095 -2732.8342,-3783.6466 C -2479.1266,-4047.5626 -2513.1267,-4368.4279 -2575.8481,-4473.3271 C -2637.0829,-4575.7401 -2756.3671,-4621.0391 -2879.2369,-4616.2021 z M -3717.966,-4576.5146 C -3834.4638,-4571.884 -3933.6218,-4523.6519 -3975.4938,-4415.1188 C -4125.3836,-4026.6006 -3771.3111,-3209.8653 -3545.9869,-3620.4869 C -3810.1037,-3360.1024 -3937.8229,-4070.8089 -3934.0424,-4191.1049 C -3930.239,-4312.1288 -3936.611,-4554.1353 -3468.3758,-4529.7715 C -3550.499,-4562.2031 -3638.257,-4579.6829 -3717.966,-4576.5146 z"
           style="fill:#008000;fill-opacity:1;fill-rule:evenodd;stroke:none;stroke-width:9.45444489;stroke-linecap:butt;stroke-linejoin:miter;stroke-miterlimit:4;stroke-dasharray:none;stroke-opacity:1" />
        <path
           sodipodi:nodetypes="csssssccsssccscscssscccscccscccsc"
           id="path3179"
           d="M -3206.4383,-4575.6327 C -3215.2397,-4575.1621 -3224.5407,-4573.6478 -3233.7786,-4572.1049 C -3362.0612,-4550.6795 -3485.0489,-4489.2041 -3538.9313,-4393.0702 C -3658.8375,-4179.1404 -3596.5706,-3819.3015 -3568.9174,-3778.3549 C -3568.6993,-3778.049 -3568.249,-3777.7381 -3568.0355,-3777.473 C -3567.9299,-3777.3508 -3568.1398,-3776.7029 -3568.0355,-3776.5911 C -3504.1112,-3757.1373 -3439.6959,-3740.1303 -3375.7716,-3683.9869 C -3420.1865,-3744.0443 -3409.2575,-3784.3986 -3542.4591,-3810.1049 C -3585.0545,-3973.0139 -3567.3827,-4228.9496 -3483.3688,-4362.2021 C -3398.2872,-4497.1482 -3247.0672,-4507.8061 -3212.6119,-4506.841 C -3132.005,-4504.5832 -3076.6837,-4486.9752 -3011.5286,-4439.8132 C -2946.949,-4393.0679 -2819.1686,-4348.2912 -2851.0147,-4232.5563 C -3024.5641,-4325.4623 -3061.5,-4033.2335 -2907.4591,-3760.7161 C -3024.4007,-4057.2427 -2972.0576,-4165.7977 -2926.8619,-4199.0424 C -2905.2127,-4214.967 -2876.0084,-4213.5478 -2843.9591,-4206.9799 C -2834.2668,-4166.0098 -2827.6424,-4121.1456 -2825.4383,-4072.0424 C -2820.6191,-3964.6816 -2811.2065,-3808.5203 -2884.5286,-3688.3966 C -2814.5064,-3708.9006 -2771.2413,-3850.0979 -2788.3966,-4007.6605 C -2801.5069,-4128.0714 -2752.839,-4204.53 -2780.505,-4289.0007 C -2810.1548,-4379.5285 -2906.8651,-4447.506 -2968.3133,-4482.1466 C -3028.3873,-4516.0124 -3102.5808,-4581.1858 -3206.4383,-4575.6327 z M -3396.0563,-4231.6743 C -3439.3116,-4229.4178 -3489.7175,-4201.8805 -3545.9869,-4142.598 C -3486.9969,-4168.4849 -3428.2461,-4195.2512 -3382.8272,-4178.7577 C -3317.612,-4155.0754 -3227.4534,-4052.4344 -3314.0355,-3706.0355 C -3197.6863,-3981.9506 -3255.4768,-4239.0083 -3396.0563,-4231.6743 z M -2903.9314,-3610.7855 C -2929.8414,-3498.1293 -2872.1523,-3225.3773 -3091.7855,-3193.6258 C -3163.9778,-3183.1892 -3237.9657,-3211.7751 -3296.3966,-3302.9869 C -3121.023,-3349.9755 -3191.2775,-3556.9995 -3269.0563,-3552.5772 C -3218.2561,-3449.9096 -3264.9852,-3372.3135 -3326.3827,-3297.6953 C -3248.3204,-3132.5891 -3156.0966,-3130.5071 -3096.1952,-3138.9453 C -2986.3561,-3154.4183 -2852.7558,-3203.762 -2903.9314,-3610.7855 z"
           style="fill:#333366;fill-opacity:1;fill-rule:evenodd;stroke:none;stroke-width:12.27700138;stroke-linecap:butt;stroke-linejoin:miter;stroke-miterlimit:4;stroke-dasharray:none;stroke-opacity:1" />
        <path
           id="path3181"
           d="M -3424.2785,-4138.1882 C -3424.5125,-4138.1222 -3424.9473,-4137.3958 -3425.1605,-4137.3063 C -3425.2564,-4137.2492 -3425.952,-4137.3698 -3426.0424,-4137.3063 C -3426.1274,-4137.2362 -3425.9631,-4136.5012 -3426.0424,-4136.4244 C -3426.1897,-4136.2569 -3426.8001,-4135.7385 -3426.9244,-4135.5424 C -3427.0752,-4135.2034 -3427.7104,-4134.1886 -3427.8063,-4133.7785 C -3427.832,-4133.6336 -3427.7869,-4133.0499 -3427.8063,-4132.8966 C -3427.8193,-4132.7348 -3427.7998,-4132.1852 -3427.8063,-4132.0146 C -3427.8063,-4131.8352 -3427.8129,-4131.314 -3427.8063,-4131.1327 C -3427.7803,-4130.7664 -3427.8577,-4129.7415 -3427.8063,-4129.3688 C -3427.7424,-4128.9932 -3427.0129,-4127.9855 -3426.9244,-4127.6049 C -3426.8238,-4127.2222 -3427.0486,-4126.2272 -3426.9244,-4125.841 C -3426.7885,-4125.4534 -3426.2011,-4124.4668 -3426.0424,-4124.0771 C -3425.8726,-4123.6868 -3425.3523,-4122.7042 -3425.1605,-4122.3132 C -3422.2236,-4116.6444 -3416.7092,-4110.5626 -3410.1674,-4106.4382 C -3409.2523,-4105.884 -3407.603,-4105.1654 -3406.6397,-4104.6744 C -3405.1776,-4103.9633 -3402.9029,-4102.5712 -3401.348,-4102.0285 C -3400.0406,-4101.6018 -3398.2983,-4101.4367 -3396.9383,-4101.1466 C -3390.138,-4099.6959 -3383.5701,-4099.8281 -3378.4174,-4101.1466 C -3377.4055,-4101.43 -3375.8026,-4101.6491 -3374.8897,-4102.0285 C -3374.7113,-4102.1081 -3374.1818,-4102.8272 -3374.0077,-4102.9105 C -3373.6683,-4103.0844 -3372.5653,-4103.6041 -3372.2438,-4103.7924 C -3371.7755,-4104.0855 -3370.9051,-4104.35 -3370.4799,-4104.6744 C -3370.3431,-4104.7859 -3369.7297,-4105.4414 -3369.598,-4105.5563 C -3369.3448,-4105.7927 -3368.9483,-4106.1888 -3368.716,-4106.4382 C -3368.6053,-4106.5662 -3367.9394,-4107.1891 -3367.8341,-4107.3202 C -3367.5347,-4107.723 -3367.2002,-4108.6537 -3366.9522,-4109.0841 C -3366.7217,-4109.5234 -3366.2464,-4110.3824 -3366.0702,-4110.848 C -3366.0177,-4111.006 -3366.1165,-4111.5691 -3366.0702,-4111.7299 C -3365.9904,-4112.0571 -3365.2421,-4113.1558 -3365.1883,-4113.4938 C -3365.1679,-4113.6655 -3365.2019,-4114.2014 -3365.1883,-4114.3757 C -3365.1814,-4114.5526 -3365.1883,-4115.0783 -3365.1883,-4115.2577 C -3365.202,-4115.6077 -3365.1476,-4116.6888 -3365.1883,-4117.0216 C -3365.2152,-4117.1838 -3366.0367,-4117.7454 -3366.0702,-4117.9035 C -3366.1101,-4118.0576 -3366.024,-4118.6353 -3366.0702,-4118.7855 C -3366.1228,-4118.9318 -3366.0115,-4119.5249 -3366.0702,-4119.6674 C -3366.1351,-4119.8062 -3366.8813,-4120.4141 -3366.9522,-4120.5494 C -3367.029,-4120.681 -3366.8695,-4121.3031 -3366.9522,-4121.4313 C -3367.1291,-4121.681 -3367.6345,-4122.0766 -3367.8341,-4122.3132 C -3367.9394,-4122.4284 -3368.6053,-4123.0831 -3368.716,-4123.1952 C -3368.9483,-4123.4135 -3369.3448,-4123.8703 -3369.598,-4124.0771 C -3375.1312,-4128.306 -3385.5139,-4130.4594 -3396.9383,-4132.8966 C -3407.5467,-4135.1597 -3416.9897,-4138.4494 -3422.5147,-4138.1882 C -3422.6515,-4138.1766 -3423.2646,-4138.205 -3423.3966,-4138.1882 C -3423.5187,-4138.1608 -3424.1616,-4138.2213 -3424.2785,-4138.1882 z M -3337.848,-4108.2021 C -3367.9348,-4070.9093 -3409.1136,-4078.656 -3441.0355,-4079.098 C -3404.5162,-4072.2883 -3362.5838,-4063.5732 -3336.966,-4108.2021 C -3337.0931,-4108.0425 -3337.7205,-4108.3602 -3337.848,-4108.2021 z"
           style="fill:#333366;fill-opacity:1;stroke:none;stroke-width:0.53500003;stroke-linecap:butt;stroke-linejoin:round;stroke-miterlimit:4;stroke-opacity:1" />
        <path
           sodipodi:nodetypes="cccc"
           id="path3183"
           d="M -3541.6756,-3568.7595 C -3469.9659,-3568.0318 -3409.7736,-3601.8565 -3359.6366,-3665.847 C -3311.0603,-3663.7429 -3300.805,-3637.2527 -3290.8663,-3610.5611 C -3365.8639,-3546.2238 -3442.0038,-3488.5765 -3541.6756,-3568.7595 z"
           style="fill:none;fill-opacity:0.75;fill-rule:evenodd;stroke:none;stroke-width:1px;stroke-linecap:butt;stroke-linejoin:miter;stroke-opacity:1" />
        <path
           id="path3185"
           d="M -2817.5008,-3688.3966 C -2864.2167,-3674.9171 -2867.9229,-3647.0041 -2871.2994,-3618.723 C -2783.2646,-3573.8476 -2695.2958,-3535.8518 -2617.2994,-3637.2438 C -2686.8227,-3619.6565 -2753.7097,-3638.0062 -2817.5008,-3688.3966 z M -3359.8966,-3665.4661 C -3410.0336,-3601.4756 -3469.8674,-3567.7245 -3541.5771,-3568.4522 C -3441.9053,-3488.2692 -3366.1026,-3546.4482 -3291.1049,-3610.7855 C -3301.0437,-3637.4771 -3311.3204,-3663.362 -3359.8966,-3665.4661 z"
           style="fill:#ffff00;fill-opacity:1;fill-rule:evenodd;stroke:none;stroke-width:1px;stroke-linecap:butt;stroke-linejoin:miter;stroke-opacity:1" />
        <path
           style="fill:#333366;fill-opacity:1;stroke:none;stroke-width:0.53500003;stroke-linecap:butt;stroke-linejoin:round;stroke-miterlimit:4;stroke-opacity:1"
           d="M -2891.9018,-4162.0612 C -2891.7162,-4161.9952 -2891.3711,-4161.2688 -2891.202,-4161.1793 C -2891.1259,-4161.1222 -2890.5739,-4161.2428 -2890.5021,-4161.1793 C -2890.4347,-4161.1092 -2890.5651,-4160.3742 -2890.5021,-4160.2974 C -2890.3852,-4160.1299 -2889.9008,-4159.6115 -2889.8023,-4159.4154 C -2889.6826,-4159.0764 -2889.1785,-4158.0616 -2889.1024,-4157.6515 C -2889.082,-4157.5066 -2889.1178,-4156.9229 -2889.1024,-4156.7696 C -2889.0921,-4156.6078 -2889.1076,-4156.0582 -2889.1024,-4155.8876 C -2889.1024,-4155.7082 -2889.0972,-4155.187 -2889.1024,-4155.0057 C -2889.1231,-4154.6394 -2889.0616,-4153.6145 -2889.1024,-4153.2418 C -2889.1532,-4152.8662 -2889.7321,-4151.8585 -2889.8023,-4151.4779 C -2889.882,-4151.0952 -2889.7037,-4150.1002 -2889.8023,-4149.714 C -2889.9101,-4149.3264 -2890.3763,-4148.3398 -2890.5021,-4147.9501 C -2890.6369,-4147.5598 -2891.0498,-4146.5772 -2891.202,-4146.1862 C -2893.5326,-4140.5174 -2897.9084,-4134.4356 -2903.0996,-4130.3112 C -2903.8258,-4129.757 -2905.1347,-4129.0384 -2905.8991,-4128.5474 C -2907.0593,-4127.8363 -2908.8644,-4126.4442 -2910.0983,-4125.9015 C -2911.1357,-4125.4748 -2912.5183,-4125.3097 -2913.5976,-4125.0196 C -2918.9939,-4123.5689 -2924.2059,-4123.7011 -2928.2947,-4125.0196 C -2929.0977,-4125.303 -2930.3697,-4125.5221 -2931.0941,-4125.9015 C -2931.2357,-4125.9811 -2931.6559,-4126.7002 -2931.794,-4126.7835 C -2932.0634,-4126.9574 -2932.9387,-4127.4771 -2933.1937,-4127.6654 C -2933.5653,-4127.9585 -2934.256,-4128.223 -2934.5934,-4128.5474 C -2934.702,-4128.6589 -2935.1887,-4129.3144 -2935.2933,-4129.4293 C -2935.4943,-4129.6657 -2935.8089,-4130.0618 -2935.9932,-4130.3112 C -2936.0811,-4130.4392 -2936.6094,-4131.0621 -2936.6931,-4131.1932 C -2936.9306,-4131.596 -2937.196,-4132.5267 -2937.3929,-4132.9571 C -2937.5758,-4133.3964 -2937.9529,-4134.2554 -2938.0928,-4134.721 C -2938.1345,-4134.879 -2938.0561,-4135.4421 -2938.0928,-4135.6029 C -2938.1561,-4135.9301 -2938.7499,-4137.0288 -2938.7926,-4137.3668 C -2938.8087,-4137.5385 -2938.7818,-4138.0744 -2938.7926,-4138.2487 C -2938.7981,-4138.4256 -2938.7926,-4138.9513 -2938.7926,-4139.1307 C -2938.7818,-4139.4807 -2938.8248,-4140.5618 -2938.7926,-4140.8946 C -2938.7713,-4141.0568 -2938.1193,-4141.6184 -2938.0928,-4141.7765 C -2938.0611,-4141.9306 -2938.1295,-4142.5083 -2938.0928,-4142.6585 C -2938.0511,-4142.8048 -2938.1394,-4143.3979 -2938.0928,-4143.5404 C -2938.0413,-4143.6792 -2937.4492,-4144.2871 -2937.3929,-4144.4224 C -2937.332,-4144.554 -2937.4585,-4145.1761 -2937.3929,-4145.3043 C -2937.2525,-4145.554 -2936.8514,-4145.9496 -2936.6931,-4146.1862 C -2936.6094,-4146.3014 -2936.0811,-4146.9561 -2935.9932,-4147.0682 C -2935.8089,-4147.2865 -2935.4943,-4147.7433 -2935.2933,-4147.9501 C -2930.9025,-4152.179 -2922.6634,-4154.3324 -2913.5976,-4156.7696 C -2905.1794,-4159.0327 -2897.6859,-4162.3224 -2893.3016,-4162.0612 C -2893.1929,-4162.0496 -2892.7065,-4162.078 -2892.6018,-4162.0612 C -2892.5049,-4162.0338 -2891.9947,-4162.0943 -2891.9018,-4162.0612 z M -2960.4884,-4132.0751 C -2936.6132,-4094.7823 -2903.9359,-4102.529 -2878.6045,-4102.971 C -2907.5841,-4096.1613 -2940.8594,-4087.4462 -2961.1882,-4132.0751 C -2961.0873,-4131.9155 -2960.5896,-4132.2332 -2960.4884,-4132.0751 z"
           id="path3187" />
      </g>
    </g>
  </g>
</svg>
