<?xml version="1.0" encoding="UTF-8" standalone="no"?>
<!-- Created with Inkscape (http://www.inkscape.org/) -->
<svg xmlns:dc="http://purl.org/dc/elements/1.1/" xmlns:cc="http://web.resource.org/cc/" xmlns:rdf="http://www.w3.org/1999/02/22-rdf-syntax-ns#" xmlns:svg="http://www.w3.org/2000/svg" xmlns="http://www.w3.org/2000/svg" xmlns:xlink="http://www.w3.org/1999/xlink" xmlns:sodipodi="http://sodipodi.sourceforge.net/DTD/sodipodi-0.dtd" xmlns:inkscape="http://www.inkscape.org/namespaces/inkscape" id="svg2" sodipodi:version="0.32" inkscape:version="0.44.1" width="210mm" height="297mm" sodipodi:docbase="/home/alrferreira/Desktop" sodipodi:docname="debian-banner-a4.svg">
  <metadata id="metadata7">
    <rdf:RDF>
      <cc:Work rdf:about="">
        <dc:format>image/svg+xml</dc:format>
        <dc:type rdf:resource="http://purl.org/dc/dcmitype/StillImage"/>
      </cc:Work>
    </rdf:RDF>
  </metadata>
  <defs id="defs5">
    <linearGradient id="linearGradient19962">
      <stop style="stop-color: black; stop-opacity: 1;" offset="0" id="stop19964"/>
      <stop id="stop19976" offset="0" style="stop-color: black; stop-opacity: 0.498039;"/>
      <stop style="stop-color: black; stop-opacity: 0;" offset="1" id="stop19966"/>
    </linearGradient>
    <linearGradient inkscape:collect="always" id="linearGradient19041">
      <stop style="stop-color: white; stop-opacity: 1;" offset="0" id="stop19043"/>
      <stop style="stop-color: white; stop-opacity: 0;" offset="1" id="stop19045"/>
    </linearGradient>
    <linearGradient inkscape:collect="always" id="linearGradient18146">
      <stop style="stop-color: white; stop-opacity: 1;" offset="0" id="stop18148"/>
      <stop style="stop-color: black; stop-opacity: 0;" offset="1" id="stop18150"/>
    </linearGradient>
    <linearGradient inkscape:collect="always" id="linearGradient18133">
      <stop style="stop-color: rgb(215, 7, 81); stop-opacity: 1;" offset="0" id="stop18135"/>
      <stop style="stop-color: white; stop-opacity: 0;" offset="1" id="stop18137"/>
    </linearGradient>
    <linearGradient inkscape:collect="always" id="linearGradient11887">
      <stop style="stop-color: white; stop-opacity: 1;" offset="0" id="stop11889"/>
      <stop style="stop-color: white; stop-opacity: 0;" offset="1" id="stop11891"/>
    </linearGradient>
    <linearGradient inkscape:collect="always" id="linearGradient9204">
      <stop style="stop-color: black; stop-opacity: 1;" offset="0" id="stop9206"/>
      <stop style="stop-color: white; stop-opacity: 0;" offset="1" id="stop9208"/>
    </linearGradient>
    <linearGradient id="linearGradient6465">
      <stop id="stop6467" offset="0" style="stop-color: white; stop-opacity: 1;"/>
      <stop style="stop-color: rgb(197, 20, 83); stop-opacity: 1;" offset="0.5" id="stop6469"/>
      <stop id="stop6471" offset="1" style="stop-color: black; stop-opacity: 1;"/>
    </linearGradient>
    <linearGradient id="linearGradient6450">
      <stop style="stop-color: rgb(5, 5, 5); stop-opacity: 1;" offset="0" id="stop6452"/>
      <stop id="stop6458" offset="0.5" style="stop-color: rgb(197, 20, 83); stop-opacity: 1;"/>
      <stop style="stop-color: black; stop-opacity: 1;" offset="1" id="stop6454"/>
    </linearGradient>
    <linearGradient inkscape:collect="always" xlink:href="#linearGradient9204" id="linearGradient9210" x1="368.52911" y1="1020.1158" x2="370.83243" y2="847.36786" gradientUnits="userSpaceOnUse" gradientTransform="matrix(0.782385, 0, 0, 0.767348, 66.0627, 104.273)"/>
    <radialGradient inkscape:collect="always" xlink:href="#linearGradient11887" id="radialGradient11893" cx="-420.35355" cy="728.74756" fx="-420.35355" fy="728.74756" r="222.26913" gradientTransform="matrix(1, 0, 0, 0.865285, 0, 98.1732)" gradientUnits="userSpaceOnUse"/>
    <radialGradient inkscape:collect="always" xlink:href="#linearGradient11887" id="radialGradient13667" gradientUnits="userSpaceOnUse" gradientTransform="matrix(1, 0, 0, 0.865285, 0, 98.1732)" cx="-420.35355" cy="728.74756" fx="-420.35355" fy="728.74756" r="222.26913"/>
    <radialGradient inkscape:collect="always" xlink:href="#linearGradient11887" id="radialGradient13671" gradientUnits="userSpaceOnUse" gradientTransform="matrix(1, 0, 0, 0.865285, 0, 98.1732)" cx="-420.35355" cy="728.74756" fx="-420.35355" fy="728.74756" r="222.26913"/>
    <linearGradient inkscape:collect="always" xlink:href="#linearGradient18133" id="linearGradient18139" x1="405.54233" y1="1026.3032" x2="402.28494" y2="899.26593" gradientUnits="userSpaceOnUse"/>
    <linearGradient inkscape:collect="always" xlink:href="#linearGradient18146" id="linearGradient18152" x1="363.19653" y1="1006.759" x2="363.19653" y2="1078.2837" gradientUnits="userSpaceOnUse" gradientTransform="matrix(0.977273, 0, 0, 0.964285, 6.95892, -52.4586)"/>
    <linearGradient inkscape:collect="always" xlink:href="#linearGradient19041" id="linearGradient19047" x1="-159.61104" y1="663.10675" x2="768.73883" y2="1032.818" gradientUnits="userSpaceOnUse"/>
    <linearGradient inkscape:collect="always" xlink:href="#linearGradient18133" id="linearGradient19060" gradientUnits="userSpaceOnUse" x1="405.54233" y1="1026.3032" x2="402.28494" y2="899.26593" gradientTransform="translate(-65.1474, 239.417)"/>
    <linearGradient inkscape:collect="always" xlink:href="#linearGradient19041" id="linearGradient19062" gradientUnits="userSpaceOnUse" x1="-159.61104" y1="663.10675" x2="768.73883" y2="1032.818" gradientTransform="translate(-65.1474, 239.417)"/>
    <linearGradient inkscape:collect="always" xlink:href="#linearGradient18133" id="linearGradient19065" gradientUnits="userSpaceOnUse" gradientTransform="matrix(0.987144, 0, 0, 0.925003, 5.01341, 70.6181)" x1="438.31528" y1="1117.566" x2="438.56931" y2="833.55664"/>
    <radialGradient inkscape:collect="always" xlink:href="#linearGradient19962" id="radialGradient19974" cx="376.81364" cy="957.11178" fx="376.81364" fy="957.11178" r="323.56119" gradientTransform="matrix(1, 0, 0, 0.103648, 1.72748, 859.637)" gradientUnits="userSpaceOnUse"/>
  </defs>
  <sodipodi:namedview inkscape:cy="567.29361" inkscape:cx="200.91249" inkscape:zoom="0.30699632" inkscape:window-height="707" inkscape:window-width="1012" inkscape:pageshadow="2" inkscape:pageopacity="0.0" guidetolerance="10.0" gridtolerance="10.0" objecttolerance="10.0" borderopacity="1.0" bordercolor="#666666" pagecolor="#ffffff" id="base" inkscape:window-x="0" inkscape:window-y="0" inkscape:current-layer="svg2"/>
  <rect style="opacity: 1; fill: white; fill-opacity: 1; stroke: none; stroke-width: 1.586; stroke-linecap: round; stroke-linejoin: round; stroke-miterlimit: 4; stroke-dasharray: none; stroke-opacity: 1;" id="rect1931" width="732.90778" height="1045.6151" x="6.514761" y="6.7470436" rx="41.032822" ry="55.375248"/>
  <path style="opacity: 1; fill: black; fill-opacity: 1; stroke: none; stroke-width: 4.17761; stroke-linecap: round; stroke-linejoin: round; stroke-miterlimit: 4; stroke-dasharray: none; stroke-opacity: 1;" d="M 350.05828,561.31155 C 329.31232,561.31156 312.44812,564.0924 312.44812,567.4998 C 312.44813,569.27273 317.0345,570.86933 324.33012,571.99552 C 324.33012,571.9955 346.7849,662.89738 328.74343,695.49592 C 323.19542,705.52045 313.52722,716.17039 312.5009,718.34792 C 306.33168,721.95202 233.29958,763.63389 235.67588,799.87624 C 237.88696,833.59874 259.70688,847.80163 280.70622,853.61346 C 266.48796,855.87057 257.79094,858.90062 257.79094,862.20824 C 257.79094,869.2019 296.63166,874.87555 344.48101,874.87555 C 392.33037,874.87555 431.17108,869.20191 431.17108,862.20824 L 430.8316,861.09753 C 429.23491,858.42829 422.10004,856.03409 411.23843,854.11593 C 430.48633,849.00202 450.71844,836.18058 451.68571,805.00666 C 453.03444,760.53868 395.79817,728.95303 383.86419,721.47937 C 382.53209,719.06475 374.5884,704.98468 369.91818,697.47933 C 352.10899,668.85887 375.18021,572.07486 375.18021,572.07486 C 382.7991,570.94494 387.64419,569.31729 387.64418,567.4998 C 387.64418,564.09242 370.80423,561.31154 350.05828,561.31155 z " id="path1873" sodipodi:nodetypes="cssscscsscccccscsc"/>
  <path style="font-size: 12px; opacity: 1; fill: rgb(215, 7, 81); fill-opacity: 1; fill-rule: evenodd; stroke: none; stroke-width: 0.613336; stroke-miterlimit: 4; stroke-dasharray: none; stroke-opacity: 1;" d="M 445.15336,398.67739 C 441.21451,434.25272 400.54303,459.00545 371.27328,441.37283 C 351.54906,429.14673 341.4861,396.5788 357.37557,376.55271 C 368.96906,362.27162 390.28085,358.03976 405.2065,368.5054 C 399.88198,358.84354 387.53484,357.32433 378.03592,357.89192 C 352.21605,360.89657 335.02882,394.3077 344.91067,420.2328 C 347.18825,432.63438 359.37489,438.74931 364.87369,447.16167 C 359.12086,448.6191 346.40324,436.36248 356.60269,446.83505 C 368.17799,457.16694 383.59199,462.77872 398.54234,460.58629 C 392.63812,459.13171 374.72514,459.96514 378.15474,453.38078 C 398.29815,457.94499 420.59322,453.48478 436.05651,438.0414 C 449.32098,425.94192 457.49277,408.15012 461.24192,390.02049 C 462.73795,377.94006 458.83192,366.23129 456.30674,354.71404 C 457.30653,341.98182 469.52888,368.59677 465.42717,355.36471 C 461.14432,326.15589 437.36072,303.39819 411.25434,298.26159 C 398.87702,294.3381 386.12123,289.38628 373.0339,291.43517 C 361.68825,286.46081 348.93186,287.7316 338.18274,293.76645 C 313.37096,303.77127 291.90651,323.4902 279.46695,349.04938 C 269.68955,365.63768 265.04852,385.50501 266.49359,405.16434 C 265.95063,435.8492 271.94843,467.54584 288.99769,492.56952 C 308.55844,523.16276 340.29294,546.08259 375.06591,547.61111 C 370.80115,546.30051 359.07875,541.97462 352.71452,536.90511 C 340.41186,530.69865 329.63193,521.6953 320.30761,511.03036 C 309.82361,499.87492 300.24462,486.3116 298.0085,470.09344 C 291.19813,456.79375 278.8233,444.96508 280.11522,428.39605 C 276.39097,398.28929 283.34557,364.70065 304.68823,343.81787 C 322.12811,330.98682 340.06628,317.39401 361.01093,312.64804 C 382.38205,307.99042 406.13191,312.67672 422.43947,329.2093 C 439.00567,344.6063 447.69515,369.28141 444.4997,392.80122 C 444.48319,394.77716 444.6205,396.77732 445.15336,398.67739 z " id="path112"/>
  <g id="g3725" transform="matrix(3.90052, 0, 0, 3.9388, 776.362, -1585.08)">
    <path inkscape:export-ydpi="64.494591" inkscape:export-xdpi="64.494591" inkscape:export-filename="/home/alrferreira/Desktop/debian-gnu-banner.png" style="fill: black; fill-rule: evenodd;" id="path830" d="M -161.14744,432.70213 C -161.24542,432.79135 -161.24542,441.92817 -161.34418,444.32409 C -161.54013,446.27544 -161.73658,450.44542 -166.25234,450.44542 C -170.96455,450.44542 -172.04487,445.5662 -172.4373,443.5249 C -172.82999,441.12923 -172.82999,439.17762 -172.82999,438.3796 C -172.82999,435.62998 -172.73201,427.99954 -165.56494,427.99954 C -163.40555,427.99954 -162.22753,428.53239 -161.24542,428.97601 L -161.14744,432.70213 z M -179.50562,439.4444 C -179.50562,455.50172 -170.0812,455.50172 -168.60871,455.50172 C -164.68185,455.50172 -162.22753,453.63844 -161.14744,450.26696 L -160.95123,455.32418 C -159.77316,455.23518 -158.59487,455.14619 -156.63171,455.14619 C -155.94431,455.14619 -155.35543,455.14619 -154.8645,455.23518 C -154.37384,455.23518 -153.88265,455.23518 -153.29375,455.32418 C -154.2756,453.46113 -155.06095,449.37993 -155.06095,440.50897 C -155.06095,431.81488 -155.06095,417.08819 -154.27534,412.65192 C -156.53347,413.62795 -158.49691,414.24889 -162.81667,414.60398 C -161.04947,416.28973 -161.04947,417.08819 -161.04947,424.62896 C -162.22776,424.27365 -163.79852,423.91879 -166.35084,423.91879 C -177.64067,423.91879 -179.50562,432.79135 -179.50562,439.4444 z " class="st1"/>
    <path inkscape:export-ydpi="64.494591" inkscape:export-xdpi="64.494591" inkscape:export-filename="/home/alrferreira/Desktop/debian-gnu-banner.png" style="fill: black; fill-rule: evenodd;" id="path831" d="M -145.24364,436.51654 C -145.14563,431.81464 -144.06531,427.5559 -139.64781,427.5559 C -134.73913,427.5559 -134.34644,432.4358 -134.44442,436.51654 L -145.24364,436.51654 z M -128.16148,437.13748 C -128.16148,430.39545 -129.63397,423.82979 -138.96093,423.82979 C -151.9195,423.82979 -151.9195,436.78286 -151.9195,439.53271 C -151.9195,451.06566 -146.12746,455.67904 -136.50635,455.67904 C -132.18681,455.67904 -130.12515,455.05878 -128.94737,454.79155 C -129.04509,452.75142 -128.65266,451.42008 -128.35821,449.64693 C -129.63397,450.44542 -131.30345,451.42008 -135.13181,451.42008 C -144.9489,451.42008 -145.14589,443.2586 -145.14589,440.50897 L -128.35821,440.50897 L -128.16148,437.13748 z " class="st1"/>
    <path inkscape:export-ydpi="64.494591" inkscape:export-xdpi="64.494591" inkscape:export-filename="/home/alrferreira/Desktop/debian-gnu-banner.png" style="fill: black; fill-rule: evenodd;" id="path832" d="M -107.64369,439.53271 C -107.64369,444.85557 -108.7235,452.04239 -115.98829,452.04239 C -117.06812,452.04239 -118.34413,451.86393 -119.12951,451.68753 C -119.22749,449.64693 -119.22749,446.09768 -119.22749,441.92839 C -119.22749,437.04872 -118.73708,434.4764 -118.2459,433.23429 C -116.87164,429.15264 -113.92637,429.15264 -113.33721,429.15264 C -108.62554,429.15264 -107.64369,435.09735 -107.64369,439.53271 z M -125.80537,445.74259 C -125.80537,450.00156 -125.80537,452.39655 -126.49251,454.25939 C -123.93996,455.14619 -120.7005,455.6788 -116.87164,455.6788 C -114.41756,455.6788 -107.25126,455.6788 -103.42189,448.4929 C -101.55619,445.21041 -100.96781,440.77437 -100.96781,437.40357 C -100.96781,435.36252 -101.16376,430.83793 -103.02923,427.9993 C -104.79615,425.24968 -107.64369,423.91857 -110.68668,423.91857 C -116.77315,423.91857 -118.54035,428.44315 -119.42396,430.83793 C -119.42396,427.9103 -119.42396,417.70846 -118.8348,412.56338 C -122.95813,414.24865 -125.51043,414.51475 -128.25922,414.78107 C -125.80514,415.66832 -125.80514,419.48297 -125.80514,431.72565 L -125.80514,445.74259 L -125.80537,445.74259 z " class="st1"/>
    <path inkscape:export-ydpi="64.494591" inkscape:export-xdpi="64.494591" inkscape:export-filename="/home/alrferreira/Desktop/debian-gnu-banner.png" style="fill: black; fill-rule: evenodd;" id="path833" d="M -88.794356,455.32418 C -90.070886,455.14619 -90.954476,455.05878 -92.819946,455.05878 C -94.782846,455.05878 -96.157356,455.14619 -97.629616,455.32418 C -97.040966,454.25939 -96.746286,453.72791 -96.549816,450.00156 C -96.353596,444.94433 -96.255856,431.37079 -96.648536,428.44315 C -97.040966,426.31379 -97.531636,425.95916 -98.415226,425.42722 C -93.310096,424.98336 -91.837836,424.62896 -89.383776,423.56417 C -89.972396,426.04817 -89.972396,427.37926 -89.972396,431.19369 C -90.070886,450.88882 -90.168636,453.0175 -88.794356,455.32418 z " class="st1"/>
    <path inkscape:export-ydpi="64.494591" inkscape:export-xdpi="64.494591" inkscape:export-filename="/home/alrferreira/Desktop/debian-gnu-banner.png" style="fill: black; fill-rule: evenodd;" id="path834" d="M -68.571256,439.17786 C -68.668716,442.72665 -68.767216,445.29919 -69.846786,447.25125 C -71.123606,449.82333 -73.381706,450.53372 -75.049916,450.53372 C -78.780536,450.53372 -79.566666,447.6951 -79.566666,444.94455 C -79.566666,439.53271 -74.264776,439.17786 -71.908696,439.17786 L -68.571256,439.17786 L -68.571256,439.17786 z M -85.947816,446.18644 C -85.947816,449.73501 -84.769546,453.37305 -81.234886,454.88078 C -79.566896,455.50172 -77.995916,455.50172 -77.505016,455.50172 C -71.712736,455.50172 -69.749586,451.68731 -68.571516,449.29161 C -68.668976,451.77563 -68.571516,453.28404 -68.375296,455.32418 C -67.196746,455.23518 -66.117176,455.14619 -64.153496,455.14619 C -63.171416,455.14619 -62.091586,455.23518 -61.012276,455.32418 C -61.699436,454.34793 -62.091586,453.81599 -62.288056,451.50907 C -62.386556,449.37993 -62.386556,447.25125 -62.386556,444.14608 L -62.386556,432.52389 C -62.386556,428.17776 -63.662316,423.91879 -73.087256,423.91879 C -79.369676,423.91879 -83.002856,425.60477 -84.867496,426.49201 C -84.082406,427.73414 -83.493006,428.79801 -82.904596,431.28201 C -80.450516,429.33064 -77.210306,428.26584 -73.970586,428.26584 C -68.668976,428.26584 -68.668976,431.46001 -68.668976,435.89561 C -69.847276,435.80639 -70.927856,435.71737 -72.596326,435.71737 C -80.646206,435.71737 -85.947816,438.5576 -85.947816,446.18644 z " class="st1"/>
    <path inkscape:export-ydpi="64.494591" inkscape:export-xdpi="64.494591" inkscape:export-filename="/home/alrferreira/Desktop/debian-gnu-banner.png" style="fill: black; fill-rule: evenodd;" id="path835" d="M -32.148636,449.64693 C -32.148636,451.59853 -32.148636,453.63844 -31.265536,455.32418 C -32.639786,455.23518 -33.425946,455.05878 -35.978496,455.05878 C -37.548966,455.05878 -38.333856,455.14619 -39.511376,455.32418 C -39.315416,454.61425 -39.218216,454.25939 -39.021226,453.28404 C -38.824236,452.04217 -38.727036,447.60679 -38.727036,446.09746 L -38.727036,439.88711 C -38.727036,437.22649 -38.727036,433.32215 -38.922966,431.99218 C -39.021226,431.01637 -39.414176,428.35416 -43.046036,428.35416 C -46.678936,428.35416 -47.856996,430.75007 -48.249176,432.70213 C -48.740356,434.74249 -48.740356,436.87186 -48.740356,445.29919 C -48.740356,452.66241 -48.740356,453.28428 -48.053216,455.3244 C -49.132526,455.23541 -50.506526,455.05902 -52.371966,455.05902 C -53.943206,455.05902 -54.925546,455.14641 -56.200846,455.3244 C -55.709636,454.43715 -55.513706,453.90453 -55.317726,450.71104 C -55.218756,447.60702 -54.925546,432.1695 -55.513706,428.53261 C -55.905876,426.31425 -56.496046,425.78208 -57.182906,425.25013 C -52.078056,424.98382 -50.408546,424.27388 -48.838306,423.47539 L -48.838306,429.5965 C -48.053216,427.82335 -46.482976,423.83001 -40.199526,423.83001 C -32.247616,423.83001 -32.247616,429.06548 -32.148636,432.43604 L -32.148636,449.64693 L -32.148636,449.64693 z " class="st1"/>
    <path inkscape:export-ydpi="64.494591" inkscape:export-xdpi="64.494591" inkscape:export-filename="/home/alrferreira/Desktop/debian-gnu-banner.png" style="fill: rgb(215, 7, 81); fill-opacity: 1; fill-rule: evenodd;" id="path836" d="M -88.303176,415.49102 L -93.506046,420.19314 L -98.709936,415.49102 L -93.506046,410.78886 L -88.303176,415.49102 z " class="st0"/>
  </g>
  <path sodipodi:nodetypes="cssscscsscccccscsc" id="path9202" d="M 351.00481,588.60015 C 330.08727,588.60016 313.08358,591.12171 313.08358,594.21138 C 313.08359,595.81901 317.70789,597.26673 325.06385,598.28792 C 325.06385,598.28789 347.70436,680.71377 329.51367,710.27271 C 323.91976,719.36251 314.17161,729.01942 313.13679,730.99392 C 306.91655,734.26194 233.2804,772.05726 235.67635,804.92025 C 237.90572,835.49833 259.90611,848.37691 281.07913,853.64683 C 266.74328,855.69347 257.97433,858.44099 257.97433,861.44019 C 257.97433,867.78175 297.1363,872.92636 345.38141,872.92636 C 393.62654,872.92636 432.7885,867.78175 432.7885,861.44019 L 432.44621,860.43305 C 430.83632,858.01271 423.64243,855.84175 412.69098,854.10243 C 432.09808,849.46537 452.49753,837.83946 453.47281,809.57228 C 454.8327,769.25066 397.12302,740.61017 385.09033,733.83338 C 383.74721,731.6439 375.73783,718.8767 371.02898,712.07119 C 353.07248,686.1194 376.33453,598.35987 376.33453,598.35987 C 384.01644,597.33529 388.9016,595.85941 388.90159,594.21138 C 388.90159,591.12173 371.92236,588.60015 351.00481,588.60015 z " style="opacity: 1; fill: url(#linearGradient9210) rgb(0, 0, 0); fill-opacity: 1; stroke: none; stroke-width: 4.17761; stroke-linecap: round; stroke-linejoin: round; stroke-miterlimit: 4; stroke-dasharray: none; stroke-opacity: 1;"/>
  <rect ry="55.375252" rx="41.032822" y="899.26593" x="16.28684" height="136.80945" width="716.62097" id="rect18131" style="opacity: 1; fill: url(#linearGradient18139) rgb(0, 0, 0); fill-opacity: 1; stroke: none; stroke-width: 1.586; stroke-linecap: round; stroke-linejoin: round; stroke-miterlimit: 4; stroke-dasharray: none; stroke-opacity: 1;"/>
  <rect style="opacity: 1; fill: rgb(215, 7, 81); fill-opacity: 1; stroke: none; stroke-width: 1.586; stroke-linecap: round; stroke-linejoin: round; stroke-miterlimit: 4; stroke-dasharray: none; stroke-opacity: 1;" id="rect15474" width="716.62097" height="136.80945" x="16.28684" y="899.26593" rx="41.032822" ry="55.375252"/>
  <path sodipodi:type="arc" style="opacity: 0.687732; fill: url(#radialGradient11893) rgb(0, 0, 0); fill-opacity: 1; stroke: none; stroke-width: 1.586; stroke-linecap: round; stroke-linejoin: round; stroke-miterlimit: 4; stroke-dasharray: none; stroke-opacity: 1;" id="path10107" sodipodi:cx="-420.35355" sodipodi:cy="728.74756" sodipodi:rx="222.26913" sodipodi:ry="192.32614" d="M -198.08441,728.74756 A 222.26913,192.32614 0 1 1 -198.9291,711.99626" sodipodi:start="0" sodipodi:end="6.1959764" sodipodi:open="true" transform="matrix(0.469393, 0, -0.726806, 0.760109, 1010.67, 211.783)"/>
  <path transform="matrix(0.469393, 0, -0.726806, 0.760109, 1032.06, -159.231)" sodipodi:open="true" sodipodi:end="6.1959764" sodipodi:start="0" d="M -198.08441,728.74756 A 222.26913,192.32614 0 1 1 -198.9291,711.99626" sodipodi:ry="192.32614" sodipodi:rx="222.26913" sodipodi:cy="728.74756" sodipodi:cx="-420.35355" id="path13665" style="opacity: 0.687732; fill: url(#radialGradient13667) rgb(0, 0, 0); fill-opacity: 1; stroke: none; stroke-width: 1.586; stroke-linecap: round; stroke-linejoin: round; stroke-miterlimit: 4; stroke-dasharray: none; stroke-opacity: 1;" sodipodi:type="arc"/>
  <path sodipodi:nodetypes="cssscscsscccccscsc" id="path13681" d="M 639.65462,735.21776 C 618.2236,735.21776 598.34796,736.4007 595.34035,737.8502 C 593.77539,738.60441 597.104,739.28356 603.64645,739.76265 C 603.64645,739.76265 546.60633,778.43168 499.1952,792.29893 C 484.61568,796.56327 465.22783,801.0937 462.2455,802.02003 C 452.69137,803.55317 340.4562,821.2844 310.92096,836.70162 C 283.43903,851.04701 293.44306,857.08881 310.00591,859.5611 C 293.32583,860.52128 281.66712,861.81023 278.74751,863.21728 C 272.57445,866.19232 307.68975,868.60586 357.11916,868.60586 C 406.54858,868.60586 451.67984,866.19232 457.8529,863.21728 L 458.48262,862.74478 C 459.18938,861.60927 453.93204,860.59087 444.4049,859.77488 C 468.80227,857.59947 501.01973,852.14525 529.53524,838.88408 C 570.17902,819.96773 538.93252,806.53139 533.20132,803.3521 C 533.95656,802.32493 538.1786,796.33537 539.97886,793.14268 C 546.84399,780.96775 656.10575,739.79636 656.10575,739.79636 C 664.9736,739.31568 671.41522,738.62336 673.01948,737.8502 C 676.0271,736.4007 661.08563,735.21776 639.65462,735.21776 z " style="opacity: 0.070632; fill: black; fill-opacity: 1; stroke: none; stroke-width: 4.17761; stroke-linecap: round; stroke-linejoin: round; stroke-miterlimit: 4; stroke-dasharray: none; stroke-opacity: 1;"/>
  <path style="font-size: 12px; opacity: 0.144981; fill: rgb(215, 7, 81); fill-opacity: 1; fill-rule: evenodd; stroke: none; stroke-width: 0.613336; stroke-miterlimit: 4; stroke-dasharray: none; stroke-opacity: 1;" d="M 495.437,500.05897 C 493.83742,514.82948 477.32055,525.10657 465.43397,517.78568 C 457.42387,512.70952 453.33727,499.18765 459.79005,490.87301 C 464.49822,484.94366 473.15304,483.18663 479.21441,487.53185 C 477.0521,483.52035 472.03786,482.88958 468.18031,483.12524 C 457.69474,484.37274 450.71493,498.24471 454.72799,509.00855 C 455.65294,514.15757 460.60199,516.69642 462.83507,520.18915 C 460.49882,520.79426 455.33413,515.70544 459.47618,520.05354 C 464.17696,524.34324 470.43666,526.67318 476.50806,525.76292 C 474.11033,525.15899 466.83579,525.50503 468.22856,522.77127 C 476.40889,524.66627 485.46303,522.81445 491.74273,516.40251 C 497.1295,511.37893 500.4481,503.99195 501.97064,496.46471 C 502.57819,491.44903 500.99193,486.58767 499.96644,481.80583 C 500.37246,476.51954 505.33602,487.5698 503.67029,482.07597 C 501.93101,469.94876 492.27238,460.5 481.67046,458.36733 C 476.64397,456.73834 471.4638,454.68238 466.14896,455.53307 C 461.54144,453.46776 456.36102,453.99539 451.99575,456.50099 C 441.91958,460.65489 433.20277,468.84199 428.15101,479.45391 C 424.18037,486.34121 422.29562,494.58992 422.88247,502.75228 C 422.66197,515.49232 425.09771,528.65245 432.02149,539.04203 C 439.9652,551.74405 452.85271,561.26013 466.97417,561.89476 C 465.24224,561.3506 460.48173,559.55452 457.89718,557.44973 C 452.90101,554.87288 448.52323,551.13477 444.73658,546.7068 C 440.47899,542.07516 436.58892,536.44381 435.68082,529.7102 C 432.91509,524.18829 427.88962,519.27715 428.41428,512.39785 C 426.90185,499.89783 429.72613,485.95216 438.39349,477.28183 C 445.4759,471.95452 452.76067,466.31093 461.26639,464.34044 C 469.9453,462.40665 479.59023,464.35234 486.2128,471.21651 C 492.9404,477.60918 496.46923,487.85405 495.17155,497.61924 C 495.16485,498.43962 495.22061,499.27006 495.437,500.05897 z " id="path14572"/>
  <path id="path15459" d="M 244.74924,464.81164 C 256.07181,469.89323 258.85665,488.12049 249.05232,497.69489 C 242.33085,504.11248 230.13005,504.75472 225.59218,496.59862 C 222.39135,490.68067 223.84325,482.00308 229.33389,477.26814 C 225.40021,478.36468 223.23616,482.99518 222.14978,486.73107 C 219.68374,497.03207 228.5064,507.02877 238.46991,505.79269 C 242.90717,506.15015 246.58066,502.04118 250.12149,500.75223 C 249.83455,503.12614 244.04373,506.82684 248.90207,503.92315 C 253.89831,500.4725 257.83754,495.06321 259.11465,489.05343 C 257.83726,491.19488 255.70963,498.21633 253.97664,496.22981 C 258.20194,488.884 259.70978,479.80275 256.64136,472.26977 C 254.39168,465.92268 249.56186,460.97912 244.02562,457.71483 C 240.20206,455.92786 235.77694,456.27038 231.60104,456.09723 C 227.49372,454.43731 238.00133,452.36364 233.04246,452.62971 C 222.73683,451.36893 211.96182,458.30611 206.74514,467.90431 C 203.7761,472.30618 200.41366,476.75182 199.3389,482.02568 C 196.1583,485.92291 194.86876,490.99079 195.43584,495.75741 C 195.43718,506.36767 199.12413,516.65241 205.9685,524.02536 C 210.18181,529.47051 216.17718,533.25397 222.92048,534.65933 C 233.06984,537.93679 244.43454,538.78198 255.06018,534.67967 C 267.87849,530.16132 279.77513,520.16078 284.95353,506.84514 C 283.94426,508.36599 280.92909,512.47395 278.38569,514.43224 C 274.66614,518.57698 270.21929,521.85237 265.41436,524.39787 C 260.29031,527.34352 254.48563,529.69795 248.78251,528.94294 C 243.43741,530.25138 237.83519,533.86209 232.4889,531.70551 C 221.95913,530.13862 211.70333,524.08753 207.61232,513.73362 C 205.67958,505.69619 203.55998,497.38961 204.7913,488.80284 C 206.10931,480.05972 210.85954,471.32925 218.55689,466.66547 C 225.91064,461.78802 235.29764,460.88882 242.7039,464.47744 C 243.35994,464.68137 244.0447,464.82811 244.74924,464.81164 z " style="font-size: 12px; opacity: 0.182156; fill: rgb(215, 7, 81); fill-opacity: 1; fill-rule: evenodd; stroke: none; stroke-width: 0.613336; stroke-miterlimit: 4; stroke-dasharray: none; stroke-opacity: 1;"/>
  <path style="font-size: 12px; opacity: 0.182156; fill: rgb(215, 7, 81); fill-opacity: 1; fill-rule: evenodd; stroke: none; stroke-width: 0.613336; stroke-miterlimit: 4; stroke-dasharray: none; stroke-opacity: 1;" d="M 219.90499,354.35606 C 208.04623,362.51739 190.22276,355.06861 188.2212,340.21808 C 186.97741,330.11858 194.38418,317.91662 204.51009,318.05417 C 211.7973,318.24306 218.46802,324.48575 219.03847,332.45321 C 220.64551,328.02374 217.99353,323.34386 215.42301,320.20839 C 207.98942,312.07696 193.4482,315.07381 188.02445,325.43463 C 184.81177,329.54311 186.01971,335.39785 184.83826,339.55312 C 182.94135,337.95235 183.47509,330.26954 182.85071,336.60321 C 182.61652,343.37538 184.79259,350.21234 189.23505,354.79944 C 188.18929,352.36666 183.41419,346.39039 186.29057,345.81451 C 189.98009,354.00779 196.96868,360.52964 205.58746,361.74662 C 212.63013,363.09788 220.12601,361.16264 226.60896,357.60635 C 230.6759,354.88985 233.26602,350.40328 236.14615,346.44586 C 240.2869,343.38312 235.24312,354.73862 238.24909,349.77651 C 246.08868,340.47428 247.03682,326.15029 242.01728,315.74006 C 240.09194,310.40605 238.38515,304.66574 234.45667,300.68497 C 233.11263,295.42664 229.50529,291.35208 224.94957,289.24768 C 215.63252,283.33928 204.19352,281.19007 193.24842,283.72784 C 185.71489,284.7852 178.47616,288.49803 172.83686,294.26149 C 163.32863,302.28877 155.16206,312.85057 151.82239,325.45057 C 147.41556,340.41089 148.42441,357.52996 156.73299,369.97357 C 156.05699,368.14671 154.41984,362.93161 154.36197,359.37182 C 153.15269,353.45241 153.18188,347.31121 154.08586,341.22891 C 154.84698,334.61395 156.57187,327.66754 160.96059,322.55161 C 163.30366,316.63396 163.79321,309.18436 169.17944,305.19549 C 177.43423,295.84618 189.44733,289.26046 201.21104,291.05591 C 209.53083,293.65635 218.209,296.2253 224.94409,302.20328 C 231.75979,308.35252 236.32217,317.8266 235.38852,327.89663 C 234.86694,337.75212 229.52401,347.36562 221.53463,352.55663 C 220.92701,353.07991 220.3508,353.66294 219.90499,354.35606 z " id="path15461"/>
  <path id="path15463" d="M 571.65989,337.87827 C 561.10018,347.31111 541.88961,341.58436 537.35844,326.79285 C 534.39516,316.72167 539.78713,303.65744 550.00755,302.77742 C 557.37801,302.23486 565.15309,307.86618 567.07717,315.85263 C 567.94519,311.21898 564.48183,306.76107 561.36211,303.85419 C 552.49887,296.3928 538.36303,300.88157 534.65615,311.88746 C 532.11681,316.35861 534.32498,322.14793 533.83908,326.46191 C 531.65768,325.03667 530.89378,317.2265 531.33787,323.68371 C 532.24917,330.54437 535.59865,337.22792 540.84938,341.412 C 539.38416,339.06111 533.56316,333.50802 536.36222,332.6372 C 541.46555,340.53777 549.60802,346.41895 558.49357,346.78035 C 565.81463,347.43591 573.03544,344.72788 578.96158,340.48516 C 582.59697,337.33339 584.44533,332.54318 586.67536,328.25801 C 590.32644,324.74924 587.17069,336.72115 589.35727,331.40899 C 595.67628,321.22873 594.20475,306.67201 587.38652,296.66706 C 584.54412,291.47565 581.85298,285.85203 577.22256,282.22839 C 574.97836,277.05489 570.65547,273.30426 565.71125,271.63807 C 555.32785,266.61053 543.44434,265.59175 532.85215,269.25516 C 525.44473,271.08071 518.78402,275.55751 514.08133,281.94366 C 505.86597,291.00465 499.43103,302.48945 498.20219,315.5463 C 496.2985,331.09349 500.21424,348.27516 510.68908,360.00203 C 509.69886,358.22569 507.16682,353.12532 506.50556,349.53723 C 504.28508,343.68275 503.27422,337.47973 503.15427,331.24816 C 502.80025,324.49319 503.3606,317.30662 506.91361,311.70003 C 508.27076,305.48988 507.50187,297.9196 512.25031,293.35052 C 518.97947,283.08095 529.96148,275.22328 542.11207,275.85227 C 550.93085,277.64049 560.10522,279.36084 567.90027,284.71843 C 575.80553,290.24081 582.00481,299.34666 582.77035,309.60718 C 583.91451,319.60963 580.16245,329.85292 572.99617,335.89761 C 572.47293,336.48705 571.99144,337.13365 571.65989,337.87827 z " style="font-size: 12px; opacity: 0.144981; fill: rgb(215, 7, 81); fill-opacity: 1; fill-rule: evenodd; stroke: none; stroke-width: 0.613336; stroke-miterlimit: 4; stroke-dasharray: none; stroke-opacity: 1;"/>
  <path style="font-size: 12px; opacity: 0.144981; fill: rgb(215, 7, 81); fill-opacity: 1; fill-rule: evenodd; stroke: none; stroke-width: 0.613336; stroke-miterlimit: 4; stroke-dasharray: none; stroke-opacity: 1;" d="M 507.30538,395.65191 C 517.58216,384.74048 539.43703,387.56462 546.44708,401.54661 C 551.0864,411.08469 546.97728,424.82728 535.89203,427.21507 C 527.88519,428.8458 518.58254,424.42004 515.37044,416.79317 C 515.05821,421.51252 519.4711,425.41531 523.2931,427.83245 C 534.04152,433.90988 548.92196,427.36615 551.46746,415.91269 C 553.63473,411.10644 550.41439,405.69844 550.35174,401.35248 C 552.94036,402.44092 554.85599,410.0652 553.47778,403.73388 C 551.53161,397.07213 546.93639,390.94748 540.60144,387.58109 C 542.53253,389.69282 549.68174,394.33089 546.73277,395.60882 C 540.04648,388.53859 530.30648,383.91978 520.51357,384.87968 C 512.39552,385.3161 504.85166,389.07 498.93922,394.15227 C 495.38805,397.81397 494.02247,402.83383 492.16871,407.40994 C 488.64959,411.42765 490.45745,399.09892 488.79308,404.68603 C 483.2694,415.70896 486.89213,429.91216 495.74927,438.81283 C 499.58252,443.53442 503.30956,448.70662 508.88697,451.60978 C 512.06183,456.40236 517.31957,459.47695 522.97091,460.3943 C 535.05026,463.83503 548.22118,463.08173 559.32989,457.88129 C 567.20017,454.97401 573.88575,449.55085 578.16081,442.52654 C 585.91833,432.33119 591.38907,419.99866 590.93432,406.88085 C 590.87582,391.19577 584.21069,374.75453 571.1064,364.6903 C 572.43735,366.30326 575.91772,370.98067 577.13805,374.43735 C 580.38087,379.90809 582.34545,385.90353 583.33709,392.05941 C 584.65764,398.6991 585.03514,405.90202 581.91311,411.9835 C 581.28215,418.33724 583.17012,425.72313 578.59411,430.95408 C 572.63302,442.12631 561.67577,451.53986 548.2658,452.71894 C 538.34916,452.25538 528.052,451.91178 518.76521,447.76017 C 509.33484,443.46163 501.28048,435.3599 499.02485,425.30828 C 496.38968,415.56847 499.09,404.86385 506.11351,397.81238 C 506.6059,397.15081 507.0446,396.43881 507.30538,395.65191 z " id="path15465"/>
  <path style="font-size: 12px; opacity: 0.182156; fill: rgb(215, 7, 81); fill-opacity: 1; fill-rule: evenodd; stroke: none; stroke-width: 0.613336; stroke-miterlimit: 4; stroke-dasharray: none; stroke-opacity: 1;" d="M 144.69415,451.20798 C 133.7305,445.54281 132.12642,428.3184 142.51921,420.19295 C 149.63469,414.75883 161.84242,415.15853 165.84265,423.13532 C 168.65363,428.91563 166.64743,436.88843 160.86758,440.85427 C 164.86073,440.15372 167.31665,436.01301 168.64037,432.61829 C 171.76232,423.21471 163.60782,413.17092 153.59286,413.50809 C 149.19113,412.81159 145.26358,416.34244 141.64979,417.25455 C 142.08868,415.06443 148.10132,412.08756 143.06982,414.39755 C 137.86562,417.20627 133.58942,421.92789 131.9292,427.42735 C 133.34077,425.53503 135.91424,419.16186 137.51451,421.15607 C 132.82843,427.66004 130.74046,436.00467 133.31548,443.28013 C 135.15039,449.38275 139.64848,454.38779 144.95905,457.8848 C 148.65683,459.86405 153.09151,459.90683 157.24449,460.41006 C 161.23342,462.29407 150.62201,463.36771 155.584,463.52548 C 165.77944,465.54459 176.97047,459.95772 182.79007,451.4346 C 186.034,447.57297 189.67303,443.70271 191.08413,438.87293 C 194.50654,435.49918 196.11856,430.87904 195.8598,426.38788 C 196.54123,416.49396 193.52649,406.60193 187.17587,399.16665 C 183.32483,393.74435 177.58983,389.72568 170.956,387.86329 C 161.04616,383.97645 149.76789,382.25818 138.90824,385.21382 C 125.83533,388.37795 113.32872,396.72952 107.30807,408.7222 C 108.41235,407.38666 111.68336,403.80286 114.3456,402.18497 C 118.32138,398.62452 122.96646,395.93427 127.92163,393.95392 C 133.22078,391.62655 139.1606,389.90618 144.79905,391.077 C 150.21327,390.29439 156.03204,387.38599 161.22448,389.83451 C 171.62372,392.15742 181.46122,398.63931 184.87442,408.62891 C 186.28451,416.28181 187.8636,424.20097 186.08322,432.10715 C 184.20631,440.15202 178.90767,447.90419 170.93192,451.62305 C 163.28504,455.56928 153.86666,455.63947 146.71221,451.687 C 146.07114,451.44316 145.39776,451.25028 144.69415,451.20798 z " id="path15467"/>
  <path style="opacity: 1; fill: url(#linearGradient19065) rgb(0, 0, 0); fill-opacity: 1; stroke: none; stroke-width: 1.586; stroke-linecap: round; stroke-linejoin: round; stroke-miterlimit: 4; stroke-dasharray: none; stroke-opacity: 1;" d="M 61.611151,902.44647 C 39.171223,902.44647 21.076568,925.29137 21.076568,953.66852 L 21.076568,977.77641 C 21.076568,980.17735 21.227246,982.51835 21.477595,984.82956 C 72.161882,995.21189 222.26497,1019.3712 378.02153,980.78267 C 503.19932,949.77 646.36152,959.95271 728.48835,970.28962 L 728.48835,953.66852 C 728.48835,925.29137 710.4245,902.44647 687.98462,902.44647 L 61.611151,902.44647 z " id="rect19054"/>
  <path style="font-size: 88.4362px; font-style: normal; font-variant: normal; font-weight: bold; font-stretch: normal; text-align: start; line-height: 125%; text-anchor: start; fill: black; fill-opacity: 1; stroke: none; stroke-width: 1pt; stroke-linecap: butt; stroke-linejoin: miter; stroke-opacity: 1; font-family: Sans;" d="M 80.577967,924.93633 C 82.868717,932.75758 62.956427,943.68138 79.167227,946.18448 C 67.674807,957.61414 66.925847,970.41766 70.039057,983.58186 C 56.798317,1000.0457 53.591827,974.17737 55.492687,965.42487 C 51.688187,948.43363 52.633557,919.19161 80.577967,924.93633 z M 114.64612,956.51665 C 89.834907,944.90648 105.13883,1006.5196 86.263657,980.87286 C 79.413657,961.44797 88.353227,933.91366 114.01537,945.38968 C 115.81811,948.86037 115.0868,952.86053 114.64612,956.51665 z M 159.449,967.25654 C 155.72161,976.47559 125.43297,966.95971 136.53998,981.13462 C 151.64062,968.81608 165.06677,996.55756 142.18682,993.19267 C 111.83155,992.69402 108.28778,940.39782 141.07462,942.47037 C 153.06051,944.46149 161.79087,956.37528 159.44899,967.25654 M 146.74677,962.18495 C 141.8918,935.96948 121.48386,974.11717 146.74677,962.18495 z M 207.35833,967.25654 C 203.63093,976.47559 173.3423,966.95979 184.44938,981.13462 C 199.55003,968.81608 212.97615,996.55756 190.09622,993.19267 C 159.74094,992.69402 156.19718,940.39782 188.98401,942.47037 C 200.96994,944.46149 209.70024,956.37528 207.35837,967.25654 M 194.65618,962.18495 C 189.80119,935.96957 169.39322,974.11717 194.65618,962.18495 z M 242.97977,950.50745 C 232.08266,938.67585 257.78622,911.98541 254.50532,938.79302 C 256.28208,958.61858 264.62163,998.26306 228.6828,990.29475 C 204.01994,985.31359 209.82725,938.04203 235.63842,943.62279 C 238.81363,945.11696 241.39505,947.59196 242.97977,950.50745 M 234.83374,981.40598 C 260.19084,979.18035 226.48782,940.34416 226.72233,967.42703 C 226.79396,972.44877 227.39376,981.23583 234.83379,981.40598 M 285.74617,953.27767 C 259.75414,955.4583 294.29051,995.03856 294.06471,967.42703 C 294.00581,962.31579 293.27513,953.44315 285.74615,953.27767 M 285.74617,942.36729 C 316.04321,943.95825 313.56583,994.72056 282.8198,992.83343 C 257.55685,987.09772 257.1551,943.39703 285.74617,942.36729 z M 351.77688,951.44507 C 374.44969,929.77035 392.96331,979.34651 372.8096,990.46898 C 356.55553,988.57788 373.76128,948.0097 354.28478,962.81359 C 355.04288,970.98806 350.13385,1002.6253 342.15874,981.66995 C 344.12971,970.54468 331.43998,945.31598 329.44959,970.42394 C 331.59109,980.87863 318.27906,1000.2409 316.05085,979.24556 C 307.56222,959.03665 321.06549,934.2352 346.81197,943.8455 C 349.7394,945.44164 351.65105,948.3725 351.77689,951.44507 M 439.69134,924.93633 C 441.98206,932.75758 422.06979,943.68138 438.28059,946.18448 C 426.7882,957.61414 426.0392,970.41766 429.15241,983.58186 C 415.91164,1000.0457 412.70521,974.17737 414.60603,965.42487 C 410.80154,948.43363 411.7469,919.19161 439.69134,924.93633 z M 463.43891,953.27767 C 437.44691,955.45839 471.98329,995.03856 471.75748,967.42703 C 471.69869,962.31579 470.96788,953.44315 463.43891,953.27767 M 463.43891,942.36729 C 493.73598,943.95825 491.25861,994.72056 460.51258,992.83343 C 435.24962,987.09772 434.84785,943.39703 463.43891,942.36729 z M 522.35922,956.51665 C 497.548,944.9064 512.85188,1006.5196 493.9767,980.87286 C 487.12668,961.44797 496.0663,933.91366 521.72843,945.38968 C 523.53116,948.86037 522.79987,952.86053 522.35922,956.51665 z M 567.16207,967.25654 C 563.43469,976.47559 533.14604,966.95971 544.25306,981.13454 C 559.35369,968.81608 572.77987,996.55756 549.89992,993.19267 C 519.54464,992.69402 516.00083,940.39782 548.78769,942.47037 C 560.77361,944.46149 569.50391,956.37528 567.16206,967.25654 M 554.45987,962.18495 C 549.60489,935.96957 529.19693,974.11717 554.45987,962.18495 z M 571.61468,943.51793 C 590.31708,933.19587 592.46682,988.17687 596.99224,957.31103 C 598.44039,940.77208 623.1974,944.11779 610.95923,959.78773 C 613.83522,977.44488 587.53537,1004.16 581.12639,975.0294 C 577.71389,964.58685 576.19463,953.63818 571.61468,943.51793 z M 661.18601,967.25654 C 657.45856,976.47559 627.16986,966.95971 638.27694,981.13454 C 653.37757,968.81608 666.80356,996.55756 643.92376,993.19267 C 613.56853,992.69402 610.02479,940.39782 642.81156,942.47037 C 654.79743,944.46158 663.52788,956.37528 661.18601,967.25654 M 648.48374,962.18495 C 643.62875,935.96948 623.22072,974.11725 648.48374,962.18495 z M 699.22358,956.51665 C 674.41232,944.90631 689.71635,1006.5196 670.84098,980.87294 C 663.99098,961.44797 672.93068,933.91366 698.59278,945.38968 C 700.39554,948.86037 699.6641,952.86053 699.22358,956.51665 z " id="text13677"/>
  <path id="path19067" d="M 82.305447,926.62713 C 84.596197,934.05838 64.683907,944.4374 80.894707,946.81566 C 69.402287,957.67527 68.653327,969.84037 71.766537,982.34797 C 58.525797,997.99067 55.319307,973.41257 57.220167,965.09657 C 53.415667,948.95257 54.361037,921.16893 82.305447,926.62713 z M 116.3736,956.63247 C 91.562387,945.6014 106.86631,1004.1418 87.991137,979.77407 C 81.141137,961.31797 90.080707,935.15682 115.74285,946.0605 C 117.54559,949.35807 116.81428,953.15877 116.3736,956.63247 z M 161.17648,966.83677 C 157.44909,975.59607 127.16045,966.55477 138.26746,980.02277 C 153.3681,968.31857 166.79425,994.67657 143.9143,991.47947 C 113.55903,991.00567 110.01526,941.31755 142.8021,943.28679 C 154.78799,945.17859 163.51835,956.49827 161.17647,966.83677 M 148.47425,962.01807 C 143.61928,937.1101 123.21134,973.35537 148.47425,962.01807 z M 209.08581,966.83677 C 205.35841,975.59607 175.06978,966.55487 186.17686,980.02277 C 201.27751,968.31857 214.70363,994.67657 191.8237,991.47947 C 161.46842,991.00567 157.92466,941.31755 190.71149,943.28679 C 202.69742,945.17859 211.42772,956.49827 209.08585,966.83677 M 196.38366,962.01807 C 191.52867,937.11019 171.1207,973.35537 196.38366,962.01807 z M 244.70725,950.92297 C 233.81014,939.68143 259.5137,914.32211 256.2328,939.79279 C 258.00956,958.62967 266.34911,996.29697 230.41028,988.72607 C 205.74742,983.99337 211.55473,939.07924 237.3659,944.38172 C 240.54111,945.8014 243.12253,948.15297 244.70725,950.92297 M 236.56122,980.28067 C 261.91832,978.16597 228.2153,941.26663 228.44981,966.99877 C 228.52144,971.77017 229.12124,980.11887 236.56127,980.28067 M 287.47365,953.55507 C 261.48162,955.62697 296.01799,993.23337 295.79219,966.99877 C 295.73329,962.14247 295.00261,953.71227 287.47363,953.55507 M 287.47365,943.18883 C 317.77069,944.70039 315.29331,992.93117 284.54728,991.13817 C 259.28433,985.68847 258.88258,944.16718 287.47365,943.18883 z M 353.50436,951.81387 C 376.17717,931.22006 394.69079,978.32387 374.53708,988.89167 C 358.28301,987.09487 375.48876,948.54987 356.01226,962.61547 C 356.77036,970.38227 351.86133,1000.4417 343.88622,980.53137 C 345.85719,969.96097 333.16746,945.99048 331.17707,969.84617 C 333.31857,979.77957 320.00654,998.17617 317.77833,978.22797 C 309.2897,959.02677 322.79297,935.46229 348.53945,944.59331 C 351.46688,946.10981 353.37853,948.89457 353.50437,951.81387 M 441.41882,926.62713 C 443.70954,934.05838 423.79727,944.4374 440.00807,946.81566 C 428.51568,957.67527 427.76668,969.84037 430.87989,982.34797 C 417.63912,997.99067 414.43269,973.41257 416.33351,965.09657 C 412.52902,948.95257 413.47438,921.16893 441.41882,926.62713 z M 465.16639,953.55507 C 439.17439,955.62707 473.71077,993.23337 473.48496,966.99877 C 473.42617,962.14247 472.69536,953.71227 465.16639,953.55507 M 465.16639,943.18883 C 495.46346,944.70039 492.98609,992.93117 462.24006,991.13817 C 436.9771,985.68847 436.57533,944.16718 465.16639,943.18883 z M 524.0867,956.63247 C 499.27548,945.6013 514.57936,1004.1418 495.70418,979.77407 C 488.85416,961.31797 497.79378,935.15682 523.45591,946.0605 C 525.25864,949.35807 524.52735,953.15877 524.0867,956.63247 z M 568.88955,966.83677 C 565.16217,975.59607 534.87352,966.55477 545.98054,980.02267 C 561.08117,968.31857 574.50735,994.67657 551.6274,991.47947 C 521.27212,991.00567 517.72831,941.31755 550.51517,943.28679 C 562.50109,945.17859 571.23139,956.49827 568.88954,966.83677 M 556.18735,962.01807 C 551.33237,937.11019 530.92441,973.35537 556.18735,962.01807 z M 573.34216,944.28205 C 592.04456,934.47482 594.1943,986.71387 598.71972,957.38727 C 600.16787,941.67319 624.92488,944.85203 612.68671,959.74047 C 615.5627,976.51707 589.26285,1001.8999 582.85387,974.22207 C 579.44137,964.30017 577.92211,953.89767 573.34216,944.28205 z M 662.91349,966.83677 C 659.18604,975.59607 628.89734,966.55477 640.00442,980.02267 C 655.10505,968.31857 668.53104,994.67657 645.65124,991.47947 C 615.29601,991.00567 611.75227,941.31755 644.53904,943.28679 C 656.52491,945.17869 665.25536,956.49827 662.91349,966.83677 M 650.21122,962.01807 C 645.35623,937.1101 624.9482,973.35537 650.21122,962.01807 z M 700.95106,956.63247 C 676.1398,945.60121 691.44383,1004.1418 672.56846,979.77407 C 665.71846,961.31797 674.65816,935.15682 700.32026,946.0605 C 702.12302,949.35807 701.39158,953.15877 700.95106,956.63247 z " style="font-size: 88.4362px; font-style: normal; font-variant: normal; font-weight: bold; font-stretch: normal; text-align: start; line-height: 125%; text-anchor: start; fill: white; fill-opacity: 1; stroke: url(#radialGradient19974) rgb(0, 0, 0); stroke-width: 1pt; stroke-linecap: butt; stroke-linejoin: miter; stroke-opacity: 1; font-family: Sans;"/>
</svg>